<?xml version="1.0" encoding="UTF-8"?> <svg xmlns="http://www.w3.org/2000/svg" width="385" height="385" viewBox="0 0 385 385" fill="none"> <g clip-path="url(#clip0)"> <path d="M-27.1906 48.0769L-42.35 21.8006L-27.1906 -4.42749H3.12815L18.2875 21.8006L3.12815 48.0769H-27.1906Z" stroke="#808080" stroke-width="0.75" stroke-miterlimit="10"></path> <path d="M18.095 21.8006L2.93561 -4.42749L18.095 -30.7037H48.4137L63.5731 -4.42749L48.4137 21.8006H18.095Z" stroke="#808080" stroke-width="0.75" stroke-miterlimit="10"></path> <path d="M18.095 74.3532L2.93561 48.0769L18.095 21.8007H48.4137L63.5731 48.0769L48.4137 74.3532H18.095Z" stroke="#808080" stroke-width="0.75" stroke-miterlimit="10"></path> <path d="M18.095 126.858L2.93561 100.581L18.095 74.3531H48.4137L63.5731 100.581L48.4137 126.858H18.095Z" stroke="#808080" stroke-width="0.75" stroke-miterlimit="10"></path> <path d="M18.095 179.362L2.93561 153.134L18.095 126.857H48.4137L63.5731 153.134L48.4137 179.362H18.095Z" stroke="#808080" stroke-width="0.75" stroke-miterlimit="10"></path> <path d="M18.095 231.866L2.93561 205.638L18.095 179.362H48.4137L63.5731 205.638L48.4137 231.866H18.095Z" stroke="#808080" stroke-width="0.75" stroke-miterlimit="10"></path> <path d="M18.095 284.419L2.93561 258.142L18.095 231.866H48.4137L63.5731 258.142L48.4137 284.419H18.095Z" stroke="#808080" stroke-width="0.75" stroke-miterlimit="10"></path> <path d="M18.095 336.923L2.93561 310.647L18.095 284.419H48.4137L63.5731 310.647L48.4137 336.923H18.095Z" stroke="#808080" stroke-width="0.75" stroke-miterlimit="10"></path> <path d="M18.095 389.428L2.93561 363.199L18.095 336.923H48.4137L63.5731 363.199L48.4137 389.428H18.095Z" stroke="#808080" stroke-width="0.75" stroke-miterlimit="10"></path> <path d="M-27.1906 100.581L-42.35 74.3532L-27.1906 48.0769H3.12815L18.2875 74.3532L3.12815 100.581H-27.1906Z" stroke="#808080" stroke-width="0.75" stroke-miterlimit="10"></path> <path d="M-27.1906 153.134L-42.35 126.858L-27.1906 100.581H3.12815L18.2875 126.858L3.12815 153.134H-27.1906Z" stroke="#808080" stroke-width="0.75" stroke-miterlimit="10"></path> <path d="M-27.1906 205.638L-42.35 179.362L-27.1906 153.134H3.12815L18.2875 179.362L3.12815 205.638H-27.1906Z" stroke="#808080" stroke-width="0.75" stroke-miterlimit="10"></path> <path d="M-27.1906 258.143L-42.35 231.866L-27.1906 205.638H3.12815L18.2875 231.866L3.12815 258.143H-27.1906Z" stroke="#808080" stroke-width="0.75" stroke-miterlimit="10"></path> <path d="M-27.1906 310.647L-42.35 284.419L-27.1906 258.143H3.12815L18.2875 284.419L3.12815 310.647H-27.1906Z" stroke="#808080" stroke-width="0.75" stroke-miterlimit="10"></path> <path d="M-27.1906 363.199L-42.35 336.923L-27.1906 310.647H3.12815L18.2875 336.923L3.12815 363.199H-27.1906Z" stroke="#808080" stroke-width="0.75" stroke-miterlimit="10"></path> <path d="M-27.1906 415.704L-42.35 389.428L-27.1906 363.199H3.12815L18.2875 389.428L3.12815 415.704H-27.1906Z" stroke="#808080" stroke-width="0.75" stroke-miterlimit="10"></path> <path d="M63.7656 48.0769L48.6063 21.8006L63.7656 -4.42749H94.0844L109.244 21.8006L94.0844 48.0769H63.7656Z" stroke="#808080" stroke-width="0.75" stroke-miterlimit="10"></path> <path d="M109.051 21.8006L93.8918 -4.42749L109.051 -30.7037H139.37L154.529 -4.42749L139.37 21.8006H109.051Z" stroke="#808080" stroke-width="0.75" stroke-miterlimit="10"></path> <path d="M109.051 74.3532L93.8918 48.0769L109.051 21.8007H139.37L154.529 48.0769L139.37 74.3532H109.051Z" stroke="#808080" stroke-width="0.75" stroke-miterlimit="10"></path> <path d="M109.051 126.858L93.8918 100.581L109.051 74.3531H139.37L154.529 100.581L139.37 126.858H109.051Z" stroke="#808080" stroke-width="0.75" stroke-miterlimit="10"></path> <path d="M109.051 179.362L93.8918 153.134L109.051 126.857H139.37L154.529 153.134L139.37 179.362H109.051Z" stroke="#808080" stroke-width="0.75" stroke-miterlimit="10"></path> <path d="M109.051 231.866L93.8918 205.638L109.051 179.362H139.37L154.529 205.638L139.37 231.866H109.051Z" stroke="#808080" stroke-width="0.75" stroke-miterlimit="10"></path> <path d="M109.051 284.419L93.8918 258.142L109.051 231.866H139.37L154.529 258.142L139.37 284.419H109.051Z" stroke="#808080" stroke-width="0.75" stroke-miterlimit="10"></path> <path d="M109.051 336.923L93.8918 310.647L109.051 284.419H139.37L154.529 310.647L139.37 336.923H109.051Z" stroke="#808080" stroke-width="0.75" stroke-miterlimit="10"></path> <path d="M109.051 389.428L93.8918 363.199L109.051 336.923H139.37L154.529 363.199L139.37 389.428H109.051Z" stroke="#808080" stroke-width="0.75" stroke-miterlimit="10"></path> <path d="M63.7656 100.581L48.6063 74.3532L63.7656 48.0769H94.0844L109.244 74.3532L94.0844 100.581H63.7656Z" stroke="#808080" stroke-width="0.75" stroke-miterlimit="10"></path> <path d="M63.7656 153.134L48.6063 126.858L63.7656 100.581H94.0844L109.244 126.858L94.0844 153.134H63.7656Z" stroke="#808080" stroke-width="0.75" stroke-miterlimit="10"></path> <path d="M63.7656 205.638L48.6063 179.362L63.7656 153.134H94.0844L109.244 179.362L94.0844 205.638H63.7656Z" stroke="#808080" stroke-width="0.75" stroke-miterlimit="10"></path> <path d="M63.7656 258.143L48.6063 231.866L63.7656 205.638H94.0844L109.244 231.866L94.0844 258.143H63.7656Z" stroke="#808080" stroke-width="0.75" stroke-miterlimit="10"></path> <path d="M63.7656 310.647L48.6063 284.419L63.7656 258.143H94.0844L109.244 284.419L94.0844 310.647H63.7656Z" stroke="#808080" stroke-width="0.75" stroke-miterlimit="10"></path> <path d="M63.7656 363.199L48.6063 336.923L63.7656 310.647H94.0844L109.244 336.923L94.0844 363.199H63.7656Z" stroke="#808080" stroke-width="0.75" stroke-miterlimit="10"></path> <path d="M63.7656 415.704L48.6063 389.428L63.7656 363.199H94.0844L109.244 389.428L94.0844 415.704H63.7656Z" stroke="#808080" stroke-width="0.75" stroke-miterlimit="10"></path> <path d="M154.722 48.0769L139.514 21.8006L154.722 -4.42749H185.041L200.2 21.8006L185.041 48.0769H154.722Z" stroke="#808080" stroke-width="0.75" stroke-miterlimit="10"></path> <path d="M199.959 21.8006L184.8 -4.42749L199.959 -30.7037H230.278L245.486 -4.42749L230.278 21.8006H199.959Z" stroke="#808080" stroke-width="0.75" stroke-miterlimit="10"></path> <path d="M199.959 74.3532L184.8 48.0769L199.959 21.8007H230.278L245.486 48.0769L230.278 74.3532H199.959Z" stroke="#808080" stroke-width="0.75" stroke-miterlimit="10"></path> <path d="M199.959 126.858L184.8 100.581L199.959 74.3531H230.278L245.486 100.581L230.278 126.858H199.959Z" stroke="#808080" stroke-width="0.75" stroke-miterlimit="10"></path> <path d="M199.959 179.362L184.8 153.134L199.959 126.857H230.278L245.486 153.134L230.278 179.362H199.959Z" stroke="#808080" stroke-width="0.75" stroke-miterlimit="10"></path> <path d="M199.959 231.866L184.8 205.638L199.959 179.362H230.278L245.486 205.638L230.278 231.866H199.959Z" stroke="#808080" stroke-width="0.75" stroke-miterlimit="10"></path> <path d="M199.959 284.419L184.8 258.142L199.959 231.866H230.278L245.486 258.142L230.278 284.419H199.959Z" stroke="#808080" stroke-width="0.75" stroke-miterlimit="10"></path> <path d="M199.959 336.923L184.8 310.647L199.959 284.419H230.278L245.486 310.647L230.278 336.923H199.959Z" stroke="#808080" stroke-width="0.75" stroke-miterlimit="10"></path> <path d="M199.959 389.428L184.8 363.199L199.959 336.923H230.278L245.486 363.199L230.278 389.428H199.959Z" stroke="#808080" stroke-width="0.75" stroke-miterlimit="10"></path> <path d="M154.722 100.581L139.514 74.3532L154.722 48.0769H185.041L200.2 74.3532L185.041 100.581H154.722Z" stroke="#808080" stroke-width="0.75" stroke-miterlimit="10"></path> <path d="M154.722 153.134L139.514 126.858L154.722 100.581H185.041L200.2 126.858L185.041 153.134H154.722Z" stroke="#808080" stroke-width="0.75" stroke-miterlimit="10"></path> <path d="M154.722 205.638L139.514 179.362L154.722 153.134H185.041L200.2 179.362L185.041 205.638H154.722Z" stroke="#808080" stroke-width="0.75" stroke-miterlimit="10"></path> <path d="M154.722 258.143L139.514 231.866L154.722 205.638H185.041L200.2 231.866L185.041 258.143H154.722Z" stroke="#808080" stroke-width="0.75" stroke-miterlimit="10"></path> <path d="M154.722 310.647L139.514 284.419L154.722 258.143H185.041L200.2 284.419L185.041 310.647H154.722Z" stroke="#808080" stroke-width="0.75" stroke-miterlimit="10"></path> <path d="M154.722 363.199L139.514 336.923L154.722 310.647H185.041L200.2 336.923L185.041 363.199H154.722Z" stroke="#808080" stroke-width="0.75" stroke-miterlimit="10"></path> <path d="M154.722 415.704L139.514 389.428L154.722 363.199H185.041L200.2 389.428L185.041 415.704H154.722Z" stroke="#808080" stroke-width="0.75" stroke-miterlimit="10"></path> <path d="M245.63 48.0769L230.471 21.8006L245.63 -4.42749H275.949L291.108 21.8006L275.949 48.0769H245.63Z" stroke="#808080" stroke-width="0.75" stroke-miterlimit="10"></path> <path d="M290.916 21.8006L275.756 -4.42749L290.916 -30.7037H321.234L336.394 -4.42749L321.234 21.8006H290.916Z" stroke="#808080" stroke-width="0.75" stroke-miterlimit="10"></path> <path d="M290.916 74.3532L275.756 48.0769L290.916 21.8007H321.234L336.394 48.0769L321.234 74.3532H290.916Z" stroke="#808080" stroke-width="0.75" stroke-miterlimit="10"></path> <path d="M290.916 126.858L275.756 100.581L290.916 74.3531H321.234L336.394 100.581L321.234 126.858H290.916Z" stroke="#808080" stroke-width="0.75" stroke-miterlimit="10"></path> <path d="M290.916 179.362L275.756 153.134L290.916 126.857H321.234L336.394 153.134L321.234 179.362H290.916Z" stroke="#808080" stroke-width="0.75" stroke-miterlimit="10"></path> <path d="M290.916 231.866L275.756 205.638L290.916 179.362H321.234L336.394 205.638L321.234 231.866H290.916Z" stroke="#808080" stroke-width="0.75" stroke-miterlimit="10"></path> <path d="M290.916 284.419L275.756 258.142L290.916 231.866H321.234L336.394 258.142L321.234 284.419H290.916Z" stroke="#808080" stroke-width="0.75" stroke-miterlimit="10"></path> <path d="M290.916 336.923L275.756 310.647L290.916 284.419H321.234L336.394 310.647L321.234 336.923H290.916Z" stroke="#808080" stroke-width="0.75" stroke-miterlimit="10"></path> <path d="M290.916 389.428L275.756 363.199L290.916 336.923H321.234L336.394 363.199L321.234 389.428H290.916Z" stroke="#808080" stroke-width="0.75" stroke-miterlimit="10"></path> <path d="M245.63 100.581L230.471 74.3532L245.63 48.0769H275.949L291.108 74.3532L275.949 100.581H245.63Z" stroke="#808080" stroke-width="0.75" stroke-miterlimit="10"></path> <path d="M245.63 153.134L230.471 126.858L245.63 100.581H275.949L291.108 126.858L275.949 153.134H245.63Z" stroke="#808080" stroke-width="0.75" stroke-miterlimit="10"></path> <path d="M245.63 205.638L230.471 179.362L245.63 153.134H275.949L291.108 179.362L275.949 205.638H245.63Z" stroke="#808080" stroke-width="0.75" stroke-miterlimit="10"></path> <path d="M245.63 258.143L230.471 231.866L245.63 205.638H275.949L291.108 231.866L275.949 258.143H245.63Z" stroke="#808080" stroke-width="0.75" stroke-miterlimit="10"></path> <path d="M245.63 310.647L230.471 284.419L245.63 258.143H275.949L291.108 284.419L275.949 310.647H245.63Z" stroke="#808080" stroke-width="0.75" stroke-miterlimit="10"></path> <path d="M245.63 363.199L230.471 336.923L245.63 310.647H275.949L291.108 336.923L275.949 363.199H245.63Z" stroke="#808080" stroke-width="0.75" stroke-miterlimit="10"></path> <path d="M245.63 415.704L230.471 389.428L245.63 363.199H275.949L291.108 389.428L275.949 415.704H245.63Z" stroke="#808080" stroke-width="0.75" stroke-miterlimit="10"></path> <path d="M336.586 48.0769L321.427 21.8006L336.586 -4.42749H366.905L382.064 21.8006L366.905 48.0769H336.586Z" stroke="#808080" stroke-width="0.75" stroke-miterlimit="10"></path> <path d="M381.872 21.8006L366.713 -4.42749L381.872 -30.7037H412.191L427.35 -4.42749L412.191 21.8006H381.872Z" stroke="#808080" stroke-width="0.75" stroke-miterlimit="10"></path> <path d="M381.872 74.3532L366.713 48.0769L381.872 21.8007H412.191L427.35 48.0769L412.191 74.3532H381.872Z" stroke="#808080" stroke-width="0.75" stroke-miterlimit="10"></path> <path d="M381.872 126.858L366.713 100.581L381.872 74.3531H412.191L427.35 100.581L412.191 126.858H381.872Z" stroke="#808080" stroke-width="0.75" stroke-miterlimit="10"></path> <path d="M381.872 179.362L366.713 153.134L381.872 126.857H412.191L427.35 153.134L412.191 179.362H381.872Z" stroke="#808080" stroke-width="0.75" stroke-miterlimit="10"></path> <path d="M381.872 231.866L366.713 205.638L381.872 179.362H412.191L427.35 205.638L412.191 231.866H381.872Z" stroke="#808080" stroke-width="0.75" stroke-miterlimit="10"></path> <path d="M381.872 284.419L366.713 258.142L381.872 231.866H412.191L427.35 258.142L412.191 284.419H381.872Z" stroke="#808080" stroke-width="0.75" stroke-miterlimit="10"></path> <path d="M381.872 336.923L366.713 310.647L381.872 284.419H412.191L427.35 310.647L412.191 336.923H381.872Z" stroke="#808080" stroke-width="0.75" stroke-miterlimit="10"></path> <path d="M381.872 389.428L366.713 363.199L381.872 336.923H412.191L427.35 363.199L412.191 389.428H381.872Z" stroke="#808080" stroke-width="0.75" stroke-miterlimit="10"></path> <path d="M336.586 100.581L321.427 74.3532L336.586 48.0769H366.905L382.064 74.3532L366.905 100.581H336.586Z" stroke="#808080" stroke-width="0.75" stroke-miterlimit="10"></path> <path d="M336.586 153.134L321.427 126.858L336.586 100.581H366.905L382.064 126.858L366.905 153.134H336.586Z" stroke="#808080" stroke-width="0.75" stroke-miterlimit="10"></path> <path d="M336.586 205.638L321.427 179.362L336.586 153.134H366.905L382.064 179.362L366.905 205.638H336.586Z" stroke="#808080" stroke-width="0.75" stroke-miterlimit="10"></path> <path d="M336.586 258.143L321.427 231.866L336.586 205.638H366.905L382.064 231.866L366.905 258.143H336.586Z" stroke="#808080" stroke-width="0.75" stroke-miterlimit="10"></path> <path d="M336.586 310.647L321.427 284.419L336.586 258.143H366.905L382.064 284.419L366.905 310.647H336.586Z" stroke="#808080" stroke-width="0.75" stroke-miterlimit="10"></path> <path d="M336.586 363.199L321.427 336.923L336.586 310.647H366.905L382.064 336.923L366.905 363.199H336.586Z" stroke="#808080" stroke-width="0.75" stroke-miterlimit="10"></path> <path d="M336.586 415.704L321.427 389.428L336.586 363.199H366.905L382.064 389.428L366.905 415.704H336.586Z" stroke="#808080" stroke-width="0.75" stroke-miterlimit="10"></path> <path d="M-42.5425 21.8006L-57.7019 -4.42749L-42.5425 -30.7037H-12.2238L2.9356 -4.42749L-12.2238 21.8006H-42.5425Z" stroke="#CCCCCC" stroke-width="0.75" stroke-miterlimit="10"></path> <path d="M-42.5425 74.3532L-57.7019 48.0769L-42.5425 21.8007H-12.2238L2.9356 48.0769L-12.2238 74.3532H-42.5425Z" stroke="#CCCCCC" stroke-width="0.75" stroke-miterlimit="10"></path> <path d="M-42.5425 126.858L-57.7019 100.581L-42.5425 74.3531H-12.2238L2.9356 100.581L-12.2238 126.858H-42.5425Z" stroke="#CCCCCC" stroke-width="0.75" stroke-miterlimit="10"></path> <path d="M-42.5425 179.362L-57.7019 153.134L-42.5425 126.857H-12.2238L2.9356 153.134L-12.2238 179.362H-42.5425Z" stroke="#CCCCCC" stroke-width="0.75" stroke-miterlimit="10"></path> <path d="M-42.5425 231.866L-57.7019 205.638L-42.5425 179.362H-12.2238L2.9356 205.638L-12.2238 231.866H-42.5425Z" stroke="#CCCCCC" stroke-width="0.75" stroke-miterlimit="10"></path> <path d="M-42.5425 284.419L-57.7019 258.142L-42.5425 231.866H-12.2238L2.9356 258.142L-12.2238 284.419H-42.5425Z" stroke="#CCCCCC" stroke-width="0.75" stroke-miterlimit="10"></path> <path d="M-42.5425 336.923L-57.7019 310.647L-42.5425 284.419H-12.2238L2.9356 310.647L-12.2238 336.923H-42.5425Z" stroke="#CCCCCC" stroke-width="0.75" stroke-miterlimit="10"></path> <path d="M-42.5425 389.428L-57.7019 363.199L-42.5425 336.923H-12.2238L2.9356 363.199L-12.2238 389.428H-42.5425Z" stroke="#CCCCCC" stroke-width="0.75" stroke-miterlimit="10"></path> <path d="M3.12813 48.0769L-12.0312 21.8006L3.12813 -4.42749H33.4469L48.6063 21.8006L33.4469 48.0769H3.12813Z" stroke="#CCCCCC" stroke-width="0.75" stroke-miterlimit="10"></path> <path d="M48.3656 21.8006L33.2062 -4.42749L48.3656 -30.7037H78.7325L93.8919 -4.42749L78.7325 21.8006H48.3656Z" stroke="#CCCCCC" stroke-width="0.75" stroke-miterlimit="10"></path> <path d="M48.3656 74.3532L33.2062 48.0769L48.3656 21.8007H78.7325L93.8919 48.0769L78.7325 74.3532H48.3656Z" stroke="#CCCCCC" stroke-width="0.75" stroke-miterlimit="10"></path> <path d="M48.3656 126.858L33.2062 100.581L48.3656 74.3531H78.7325L93.8919 100.581L78.7325 126.858H48.3656Z" stroke="#CCCCCC" stroke-width="0.75" stroke-miterlimit="10"></path> <path d="M48.3656 179.362L33.2062 153.134L48.3656 126.857H78.7325L93.8919 153.134L78.7325 179.362H48.3656Z" stroke="#CCCCCC" stroke-width="0.75" stroke-miterlimit="10"></path> <path d="M48.3656 231.866L33.2062 205.638L48.3656 179.362H78.7325L93.8919 205.638L78.7325 231.866H48.3656Z" stroke="#CCCCCC" stroke-width="0.75" stroke-miterlimit="10"></path> <path d="M48.3656 284.419L33.2062 258.142L48.3656 231.866H78.7325L93.8919 258.142L78.7325 284.419H48.3656Z" stroke="#CCCCCC" stroke-width="0.75" stroke-miterlimit="10"></path> <path d="M48.3656 336.923L33.2062 310.647L48.3656 284.419H78.7325L93.8919 310.647L78.7325 336.923H48.3656Z" stroke="#CCCCCC" stroke-width="0.75" stroke-miterlimit="10"></path> <path d="M48.3656 389.428L33.2062 363.199L48.3656 336.923H78.7325L93.8919 363.199L78.7325 389.428H48.3656Z" stroke="#CCCCCC" stroke-width="0.75" stroke-miterlimit="10"></path> <path d="M3.12813 100.581L-12.0312 74.3532L3.12813 48.0769H33.4469L48.6063 74.3532L33.4469 100.581H3.12813Z" stroke="#CCCCCC" stroke-width="0.75" stroke-miterlimit="10"></path> <path d="M3.12813 153.134L-12.0312 126.858L3.12813 100.581H33.4469L48.6063 126.858L33.4469 153.134H3.12813Z" stroke="#CCCCCC" stroke-width="0.75" stroke-miterlimit="10"></path> <path d="M3.12813 205.638L-12.0312 179.362L3.12813 153.134H33.4469L48.6063 179.362L33.4469 205.638H3.12813Z" stroke="#CCCCCC" stroke-width="0.75" stroke-miterlimit="10"></path> <path d="M3.12813 258.143L-12.0312 231.866L3.12813 205.638H33.4469L48.6063 231.866L33.4469 258.143H3.12813Z" stroke="#CCCCCC" stroke-width="0.75" stroke-miterlimit="10"></path> <path d="M3.12813 310.647L-12.0312 284.419L3.12813 258.143H33.4469L48.6063 284.419L33.4469 310.647H3.12813Z" stroke="#CCCCCC" stroke-width="0.75" stroke-miterlimit="10"></path> <path d="M3.12813 363.199L-12.0312 336.923L3.12813 310.647H33.4469L48.6063 336.923L33.4469 363.199H3.12813Z" stroke="#CCCCCC" stroke-width="0.75" stroke-miterlimit="10"></path> <path d="M3.12813 415.704L-12.0312 389.428L3.12813 363.199H33.4469L48.6063 389.428L33.4469 415.704H3.12813Z" stroke="#CCCCCC" stroke-width="0.75" stroke-miterlimit="10"></path> <path d="M94.0363 48.0769L78.877 21.8006L94.0363 -4.42749H124.355L139.514 21.8006L124.355 48.0769H94.0363Z" stroke="#CCCCCC" stroke-width="0.75" stroke-miterlimit="10"></path> <path d="M139.322 21.8006L124.162 -4.42749L139.322 -30.7037H169.641L184.8 -4.42749L169.641 21.8006H139.322Z" stroke="#CCCCCC" stroke-width="0.75" stroke-miterlimit="10"></path> <path d="M139.322 74.3532L124.162 48.0769L139.322 21.8007H169.641L184.8 48.0769L169.641 74.3532H139.322Z" stroke="#CCCCCC" stroke-width="0.75" stroke-miterlimit="10"></path> <path d="M139.322 126.858L124.162 100.581L139.322 74.3531H169.641L184.8 100.581L169.641 126.858H139.322Z" stroke="#CCCCCC" stroke-width="0.75" stroke-miterlimit="10"></path> <path d="M139.322 179.362L124.162 153.134L139.322 126.857H169.641L184.8 153.134L169.641 179.362H139.322Z" stroke="#CCCCCC" stroke-width="0.75" stroke-miterlimit="10"></path> <path d="M139.322 231.866L124.162 205.638L139.322 179.362H169.641L184.8 205.638L169.641 231.866H139.322Z" stroke="#CCCCCC" stroke-width="0.75" stroke-miterlimit="10"></path> <path d="M139.322 284.419L124.162 258.142L139.322 231.866H169.641L184.8 258.142L169.641 284.419H139.322Z" stroke="#CCCCCC" stroke-width="0.75" stroke-miterlimit="10"></path> <path d="M139.322 336.923L124.162 310.647L139.322 284.419H169.641L184.8 310.647L169.641 336.923H139.322Z" stroke="#CCCCCC" stroke-width="0.75" stroke-miterlimit="10"></path> <path d="M139.322 389.428L124.162 363.199L139.322 336.923H169.641L184.8 363.199L169.641 389.428H139.322Z" stroke="#CCCCCC" stroke-width="0.75" stroke-miterlimit="10"></path> <path d="M94.0363 100.581L78.877 74.3532L94.0363 48.0769H124.355L139.514 74.3532L124.355 100.581H94.0363Z" stroke="#CCCCCC" stroke-width="0.75" stroke-miterlimit="10"></path> <path d="M94.0363 153.134L78.877 126.858L94.0363 100.581H124.355L139.514 126.858L124.355 153.134H94.0363Z" stroke="#CCCCCC" stroke-width="0.75" stroke-miterlimit="10"></path> <path d="M94.0363 205.638L78.877 179.362L94.0363 153.134H124.355L139.514 179.362L124.355 205.638H94.0363Z" stroke="#CCCCCC" stroke-width="0.75" stroke-miterlimit="10"></path> <path d="M94.0363 258.143L78.877 231.866L94.0363 205.638H124.355L139.514 231.866L124.355 258.143H94.0363Z" stroke="#CCCCCC" stroke-width="0.75" stroke-miterlimit="10"></path> <path d="M94.0363 310.647L78.877 284.419L94.0363 258.143H124.355L139.514 284.419L124.355 310.647H94.0363Z" stroke="#CCCCCC" stroke-width="0.75" stroke-miterlimit="10"></path> <path d="M94.0363 363.199L78.877 336.923L94.0363 310.647H124.355L139.514 336.923L124.355 363.199H94.0363Z" stroke="#CCCCCC" stroke-width="0.75" stroke-miterlimit="10"></path> <path d="M94.0363 415.704L78.877 389.428L94.0363 363.199H124.355L139.514 389.428L124.355 415.704H94.0363Z" stroke="#CCCCCC" stroke-width="0.75" stroke-miterlimit="10"></path> <path d="M184.993 48.0769L169.833 21.8006L184.993 -4.42749H215.311L230.471 21.8006L215.311 48.0769H184.993Z" stroke="#CCCCCC" stroke-width="0.75" stroke-miterlimit="10"></path> <path d="M230.278 21.8006L215.119 -4.42749L230.278 -30.7037H260.597L275.756 -4.42749L260.597 21.8006H230.278Z" stroke="#CCCCCC" stroke-width="0.75" stroke-miterlimit="10"></path> <path d="M230.278 74.3532L215.119 48.0769L230.278 21.8007H260.597L275.756 48.0769L260.597 74.3532H230.278Z" stroke="#CCCCCC" stroke-width="0.75" stroke-miterlimit="10"></path> <path d="M230.278 126.858L215.119 100.581L230.278 74.3531H260.597L275.756 100.581L260.597 126.858H230.278Z" stroke="#CCCCCC" stroke-width="0.75" stroke-miterlimit="10"></path> <path d="M230.278 179.362L215.119 153.134L230.278 126.857H260.597L275.756 153.134L260.597 179.362H230.278Z" stroke="#CCCCCC" stroke-width="0.75" stroke-miterlimit="10"></path> <path d="M230.278 231.866L215.119 205.638L230.278 179.362H260.597L275.756 205.638L260.597 231.866H230.278Z" stroke="#CCCCCC" stroke-width="0.75" stroke-miterlimit="10"></path> <path d="M230.278 284.419L215.119 258.142L230.278 231.866H260.597L275.756 258.142L260.597 284.419H230.278Z" stroke="#CCCCCC" stroke-width="0.75" stroke-miterlimit="10"></path> <path d="M230.278 336.923L215.119 310.647L230.278 284.419H260.597L275.756 310.647L260.597 336.923H230.278Z" stroke="#CCCCCC" stroke-width="0.75" stroke-miterlimit="10"></path> <path d="M230.278 389.428L215.119 363.199L230.278 336.923H260.597L275.756 363.199L260.597 389.428H230.278Z" stroke="#CCCCCC" stroke-width="0.75" stroke-miterlimit="10"></path> <path d="M184.993 100.581L169.833 74.3532L184.993 48.0769H215.311L230.471 74.3532L215.311 100.581H184.993Z" stroke="#CCCCCC" stroke-width="0.75" stroke-miterlimit="10"></path> <path d="M184.993 153.134L169.833 126.858L184.993 100.581H215.311L230.471 126.858L215.311 153.134H184.993Z" stroke="#CCCCCC" stroke-width="0.75" stroke-miterlimit="10"></path> <path d="M184.993 205.638L169.833 179.362L184.993 153.134H215.311L230.471 179.362L215.311 205.638H184.993Z" stroke="#CCCCCC" stroke-width="0.75" stroke-miterlimit="10"></path> <path d="M184.993 258.143L169.833 231.866L184.993 205.638H215.311L230.471 231.866L215.311 258.143H184.993Z" stroke="#CCCCCC" stroke-width="0.75" stroke-miterlimit="10"></path> <path d="M184.993 310.647L169.833 284.419L184.993 258.143H215.311L230.471 284.419L215.311 310.647H184.993Z" stroke="#CCCCCC" stroke-width="0.75" stroke-miterlimit="10"></path> <path d="M184.993 363.199L169.833 336.923L184.993 310.647H215.311L230.471 336.923L215.311 363.199H184.993Z" stroke="#CCCCCC" stroke-width="0.75" stroke-miterlimit="10"></path> <path d="M184.993 415.704L169.833 389.428L184.993 363.199H215.311L230.471 389.428L215.311 415.704H184.993Z" stroke="#CCCCCC" stroke-width="0.75" stroke-miterlimit="10"></path> <path d="M275.949 48.0769L260.789 21.8006L275.949 -4.42749H306.268L321.427 21.8006L306.268 48.0769H275.949Z" stroke="#CCCCCC" stroke-width="0.75" stroke-miterlimit="10"></path> <path d="M321.234 21.8006L306.075 -4.42749L321.234 -30.7037H351.553L366.712 -4.42749L351.553 21.8006H321.234Z" stroke="#CCCCCC" stroke-width="0.75" stroke-miterlimit="10"></path> <path d="M321.234 74.3532L306.075 48.0769L321.234 21.8007H351.553L366.712 48.0769L351.553 74.3532H321.234Z" stroke="#CCCCCC" stroke-width="0.75" stroke-miterlimit="10"></path> <path d="M321.234 126.858L306.075 100.581L321.234 74.3531H351.553L366.712 100.581L351.553 126.858H321.234Z" stroke="#CCCCCC" stroke-width="0.75" stroke-miterlimit="10"></path> <path d="M321.234 179.362L306.075 153.134L321.234 126.857H351.553L366.712 153.134L351.553 179.362H321.234Z" stroke="#CCCCCC" stroke-width="0.75" stroke-miterlimit="10"></path> <path d="M321.234 231.866L306.075 205.638L321.234 179.362H351.553L366.712 205.638L351.553 231.866H321.234Z" stroke="#CCCCCC" stroke-width="0.75" stroke-miterlimit="10"></path> <path d="M321.234 284.419L306.075 258.142L321.234 231.866H351.553L366.712 258.142L351.553 284.419H321.234Z" stroke="#CCCCCC" stroke-width="0.75" stroke-miterlimit="10"></path> <path d="M321.234 336.923L306.075 310.647L321.234 284.419H351.553L366.712 310.647L351.553 336.923H321.234Z" stroke="#CCCCCC" stroke-width="0.75" stroke-miterlimit="10"></path> <path d="M321.234 389.428L306.075 363.199L321.234 336.923H351.553L366.712 363.199L351.553 389.428H321.234Z" stroke="#CCCCCC" stroke-width="0.75" stroke-miterlimit="10"></path> <path d="M275.949 100.581L260.789 74.3532L275.949 48.0769H306.268L321.427 74.3532L306.268 100.581H275.949Z" stroke="#CCCCCC" stroke-width="0.75" stroke-miterlimit="10"></path> <path d="M275.949 153.134L260.789 126.858L275.949 100.581H306.268L321.427 126.858L306.268 153.134H275.949Z" stroke="#CCCCCC" stroke-width="0.75" stroke-miterlimit="10"></path> <path d="M275.949 205.638L260.789 179.362L275.949 153.134H306.268L321.427 179.362L306.268 205.638H275.949Z" stroke="#CCCCCC" stroke-width="0.75" stroke-miterlimit="10"></path> <path d="M275.949 258.143L260.789 231.866L275.949 205.638H306.268L321.427 231.866L306.268 258.143H275.949Z" stroke="#CCCCCC" stroke-width="0.75" stroke-miterlimit="10"></path> <path d="M275.949 310.647L260.789 284.419L275.949 258.143H306.268L321.427 284.419L306.268 310.647H275.949Z" stroke="#CCCCCC" stroke-width="0.75" stroke-miterlimit="10"></path> <path d="M275.949 363.199L260.789 336.923L275.949 310.647H306.268L321.427 336.923L306.268 363.199H275.949Z" stroke="#CCCCCC" stroke-width="0.75" stroke-miterlimit="10"></path> <path d="M275.949 415.704L260.789 389.428L275.949 363.199H306.268L321.427 389.428L306.268 415.704H275.949Z" stroke="#CCCCCC" stroke-width="0.75" stroke-miterlimit="10"></path> <path d="M18.2875 20.2125C19.1538 20.2125 19.8756 20.9343 19.8756 21.8006C19.8756 22.6668 19.1538 23.3887 18.2875 23.3887C17.4213 23.3887 16.6994 22.6668 16.6994 21.8006C16.6994 20.9343 17.4213 20.2125 18.2875 20.2125ZM18.2875 19.7312C17.1325 19.7312 16.2181 20.6456 16.2181 21.8006C16.2181 22.9556 17.1325 23.8699 18.2875 23.8699C19.4425 23.8699 20.3569 22.9556 20.3569 21.8006C20.3569 20.6456 19.4425 19.7312 18.2875 19.7312Z" fill="#615F58"></path> <path d="M48.6062 20.2125C49.4725 20.2125 50.1944 20.9343 50.1944 21.8006C50.1944 22.6668 49.4725 23.3887 48.6062 23.3887C47.74 23.3887 47.0181 22.6668 47.0181 21.8006C46.97 20.9343 47.6919 20.2125 48.6062 20.2125ZM48.6062 19.7312C47.4512 19.7312 46.5369 20.6456 46.5369 21.8006C46.5369 22.9556 47.4512 23.8699 48.6062 23.8699C49.7612 23.8699 50.6756 22.9556 50.6756 21.8006C50.6756 20.6456 49.7612 19.7312 48.6062 19.7312Z" fill="#615F58"></path> <path d="M109.051 20.2125C109.917 20.2125 110.639 20.9343 110.639 21.8006C110.639 22.6668 109.917 23.3887 109.051 23.3887C108.185 23.3887 107.463 22.6668 107.463 21.8006C107.463 20.9343 108.137 20.2125 109.051 20.2125ZM109.051 19.7312C107.896 19.7312 106.982 20.6456 106.982 21.8006C106.982 22.9556 107.896 23.8699 109.051 23.8699C110.206 23.8699 111.121 22.9556 111.121 21.8006C111.121 20.6456 110.206 19.7312 109.051 19.7312Z" fill="#615F58"></path> <path d="M139.322 20.2125C140.188 20.2125 140.91 20.9343 140.91 21.8006C140.91 22.6668 140.188 23.3887 139.322 23.3887C138.456 23.3887 137.734 22.6668 137.734 21.8006C137.734 20.9343 138.456 20.2125 139.322 20.2125ZM139.322 19.7312C138.167 19.7312 137.253 20.6456 137.253 21.8006C137.253 22.9556 138.167 23.8699 139.322 23.8699C140.477 23.8699 141.391 22.9556 141.391 21.8006C141.439 20.6456 140.477 19.7312 139.322 19.7312Z" fill="#615F58"></path> <path d="M199.815 20.2125C200.681 20.2125 201.403 20.9343 201.403 21.8006C201.403 22.6668 200.681 23.3887 199.815 23.3887C198.949 23.3887 198.227 22.6668 198.227 21.8006C198.179 20.9343 198.901 20.2125 199.815 20.2125ZM199.815 19.7312C198.66 19.7312 197.746 20.6456 197.746 21.8006C197.746 22.9556 198.66 23.8699 199.815 23.8699C200.97 23.8699 201.884 22.9556 201.884 21.8006C201.884 20.6456 200.922 19.7312 199.815 19.7312Z" fill="#615F58"></path> <path d="M230.086 20.2125C230.952 20.2125 231.674 20.9343 231.674 21.8006C231.674 22.6668 230.952 23.3887 230.086 23.3887C229.219 23.3887 228.497 22.6668 228.497 21.8006C228.497 20.9343 229.219 20.2125 230.086 20.2125ZM230.086 19.7312C228.931 19.7312 228.016 20.6456 228.016 21.8006C228.016 22.9556 228.931 23.8699 230.086 23.8699C231.241 23.8699 232.155 22.9556 232.155 21.8006C232.203 20.6456 231.241 19.7312 230.086 19.7312Z" fill="#615F58"></path> <path d="M290.531 20.2125C291.397 20.2125 292.119 20.9343 292.119 21.8006C292.119 22.6668 291.397 23.3887 290.531 23.3887C289.664 23.3887 288.943 22.6668 288.943 21.8006C288.943 20.9343 289.664 20.2125 290.531 20.2125ZM290.531 19.7312C289.376 19.7312 288.461 20.6456 288.461 21.8006C288.461 22.9556 289.376 23.8699 290.531 23.8699C291.686 23.8699 292.6 22.9556 292.6 21.8006C292.648 20.6456 291.686 19.7312 290.531 19.7312Z" fill="#615F58"></path> <path d="M320.849 20.2125C321.716 20.2125 322.438 20.9343 322.438 21.8006C322.438 22.6668 321.716 23.3887 320.849 23.3887C319.983 23.3887 319.261 22.6668 319.261 21.8006C319.261 20.9343 319.983 20.2125 320.849 20.2125ZM320.849 19.7312C319.694 19.7312 318.78 20.6456 318.78 21.8006C318.78 22.9556 319.694 23.8699 320.849 23.8699C322.004 23.8699 322.919 22.9556 322.919 21.8006C322.919 20.6456 322.004 19.7312 320.849 19.7312Z" fill="#615F58"></path> <path d="M381.294 20.2125C382.161 20.2125 382.882 20.9343 382.882 21.8006C382.882 22.6668 382.161 23.3887 381.294 23.3887C380.428 23.3887 379.706 22.6668 379.706 21.8006C379.706 20.9343 380.428 20.2125 381.294 20.2125ZM381.294 19.7312C380.139 19.7312 379.225 20.6456 379.225 21.8006C379.225 22.9556 380.139 23.8699 381.294 23.8699C382.449 23.8699 383.364 22.9556 383.364 21.8006C383.364 20.6456 382.449 19.7312 381.294 19.7312Z" fill="#615F58"></path> <path d="M3.5131 46.4887C4.37935 46.4887 5.10123 47.2106 5.10123 48.0768C5.10123 48.9431 4.37935 49.665 3.5131 49.665C2.64685 49.665 1.92498 48.9431 1.92498 48.0768C1.92498 47.1624 2.59873 46.4887 3.5131 46.4887ZM3.5131 46.0074C2.3581 46.0074 1.44373 46.9218 1.44373 48.0768C1.44373 49.2318 2.3581 50.1462 3.5131 50.1462C4.6681 50.1462 5.58248 49.2318 5.58248 48.0768C5.58248 46.9218 4.6681 46.0074 3.5131 46.0074Z" fill="#615F58"></path> <path d="M63.958 46.4887C64.8243 46.4887 65.5462 47.2106 65.5462 48.0768C65.5462 48.9431 64.8243 49.665 63.958 49.665C63.0918 49.665 62.3699 48.9431 62.3699 48.0768C62.3699 47.1624 63.0918 46.4887 63.958 46.4887ZM63.958 46.0074C62.803 46.0074 61.8887 46.9218 61.8887 48.0768C61.8887 49.2318 62.803 50.1462 63.958 50.1462C65.113 50.1462 66.0274 49.2318 66.0274 48.0768C66.0274 46.9218 65.113 46.0074 63.958 46.0074Z" fill="#615F58"></path> <path d="M94.2768 46.4887C95.1431 46.4887 95.865 47.2106 95.865 48.0768C95.865 48.9431 95.1431 49.665 94.2768 49.665C93.4106 49.665 92.6887 48.9431 92.6887 48.0768C92.6406 47.1624 93.3625 46.4887 94.2768 46.4887ZM94.2768 46.0074C93.1218 46.0074 92.2075 46.9218 92.2075 48.0768C92.2075 49.2318 93.1218 50.1462 94.2768 50.1462C95.4318 50.1462 96.3462 49.2318 96.3462 48.0768C96.3462 46.9218 95.3837 46.0074 94.2768 46.0074Z" fill="#615F58"></path> <path d="M154.722 46.4887C155.588 46.4887 156.31 47.2106 156.31 48.0768C156.31 48.9431 155.588 49.665 154.722 49.665C153.856 49.665 153.134 48.9431 153.134 48.0768C153.086 47.1624 153.808 46.4887 154.722 46.4887ZM154.722 46.0074C153.567 46.0074 152.653 46.9218 152.653 48.0768C152.653 49.2318 153.567 50.1462 154.722 50.1462C155.877 50.1462 156.791 49.2318 156.791 48.0768C156.791 46.9218 155.877 46.0074 154.722 46.0074Z" fill="#615F58"></path> <path d="M184.992 46.4887C185.859 46.4887 186.581 47.2106 186.581 48.0768C186.581 48.9431 185.859 49.665 184.992 49.665C184.126 49.665 183.404 48.9431 183.404 48.0768C183.404 47.1624 184.126 46.4887 184.992 46.4887ZM184.992 46.0074C183.837 46.0074 182.923 46.9218 182.923 48.0768C182.923 49.2318 183.837 50.1462 184.992 50.1462C186.147 50.1462 187.062 49.2318 187.062 48.0768C187.11 46.9218 186.147 46.0074 184.992 46.0074Z" fill="#615F58"></path> <path d="M245.486 46.4887C246.352 46.4887 247.074 47.2106 247.074 48.0768C247.074 48.9431 246.352 49.665 245.486 49.665C244.619 49.665 243.897 48.9431 243.897 48.0768C243.849 47.1624 244.571 46.4887 245.486 46.4887ZM245.486 46.0074C244.331 46.0074 243.416 46.9218 243.416 48.0768C243.416 49.2318 244.331 50.1462 245.486 50.1462C246.641 50.1462 247.555 49.2318 247.555 48.0768C247.555 46.9218 246.592 46.0074 245.486 46.0074Z" fill="#615F58"></path> <path d="M275.756 46.4887C276.623 46.4887 277.344 47.2106 277.344 48.0768C277.344 48.9431 276.623 49.665 275.756 49.665C274.89 49.665 274.168 48.9431 274.168 48.0768C274.168 47.1624 274.89 46.4887 275.756 46.4887ZM275.756 46.0074C274.601 46.0074 273.687 46.9218 273.687 48.0768C273.687 49.2318 274.601 50.1462 275.756 50.1462C276.911 50.1462 277.826 49.2318 277.826 48.0768C277.826 46.9218 276.911 46.0074 275.756 46.0074Z" fill="#615F58"></path> <path d="M336.201 46.4887C337.067 46.4887 337.789 47.2106 337.789 48.0768C337.789 48.9431 337.067 49.665 336.201 49.665C335.335 49.665 334.613 48.9431 334.613 48.0768C334.613 47.1624 335.335 46.4887 336.201 46.4887ZM336.201 46.0074C335.046 46.0074 334.132 46.9218 334.132 48.0768C334.132 49.2318 335.046 50.1462 336.201 50.1462C337.356 50.1462 338.271 49.2318 338.271 48.0768C338.319 46.9218 337.356 46.0074 336.201 46.0074Z" fill="#615F58"></path> <path d="M366.52 46.4887C367.386 46.4887 368.108 47.2106 368.108 48.0768C368.108 48.9431 367.386 49.665 366.52 49.665C365.654 49.665 364.932 48.9431 364.932 48.0768C364.932 47.1624 365.654 46.4887 366.52 46.4887ZM366.52 46.0074C365.365 46.0074 364.451 46.9218 364.451 48.0768C364.451 49.2318 365.365 50.1462 366.52 50.1462C367.675 50.1462 368.589 49.2318 368.589 48.0768C368.589 46.9218 367.675 46.0074 366.52 46.0074Z" fill="#615F58"></path> <path d="M18.2875 72.9094C19.1538 72.9094 19.8756 73.6312 19.8756 74.4975C19.8756 75.3637 19.1538 76.0856 18.2875 76.0856C17.4213 76.0856 16.6994 75.3637 16.6994 74.4975C16.6994 73.6312 17.4213 72.9094 18.2875 72.9094ZM18.2875 72.4281C17.1325 72.4281 16.2181 73.3425 16.2181 74.4975C16.2181 75.6525 17.1325 76.5668 18.2875 76.5668C19.4425 76.5668 20.3569 75.6525 20.3569 74.4975C20.3569 73.3425 19.4425 72.4281 18.2875 72.4281Z" fill="#615F58"></path> <path d="M48.6062 72.9094C49.4725 72.9094 50.1944 73.6312 50.1944 74.4975C50.1944 75.3637 49.4725 76.0856 48.6062 76.0856C47.74 76.0856 47.0181 75.3637 47.0181 74.4975C47.0181 73.6312 47.6919 72.9094 48.6062 72.9094ZM48.6062 72.4281C47.4512 72.4281 46.5369 73.3425 46.5369 74.4975C46.5369 75.6525 47.4512 76.5668 48.6062 76.5668C49.7612 76.5668 50.6756 75.6525 50.6756 74.4975C50.6756 73.3425 49.7612 72.4281 48.6062 72.4281Z" fill="#615F58"></path> <path d="M109.051 72.9094C109.917 72.9094 110.639 73.6312 110.639 74.4975C110.639 75.3637 109.917 76.0856 109.051 76.0856C108.185 76.0856 107.463 75.3637 107.463 74.4975C107.463 73.6312 108.137 72.9094 109.051 72.9094ZM109.051 72.4281C107.896 72.4281 106.982 73.3425 106.982 74.4975C106.982 75.6525 107.896 76.5668 109.051 76.5668C110.206 76.5668 111.121 75.6525 111.121 74.4975C111.121 73.3425 110.206 72.4281 109.051 72.4281Z" fill="#615F58"></path> <path d="M139.322 72.9094C140.188 72.9094 140.91 73.6312 140.91 74.4975C140.91 75.3637 140.188 76.0856 139.322 76.0856C138.456 76.0856 137.734 75.3637 137.734 74.4975C137.734 73.6312 138.456 72.9094 139.322 72.9094ZM139.322 72.4281C138.167 72.4281 137.253 73.3425 137.253 74.4975C137.253 75.6525 138.167 76.5668 139.322 76.5668C140.477 76.5668 141.391 75.6525 141.391 74.4975C141.391 73.3425 140.477 72.4281 139.322 72.4281Z" fill="#615F58"></path> <path d="M199.815 72.9094C200.681 72.9094 201.403 73.6312 201.403 74.4975C201.403 75.3637 200.681 76.0856 199.815 76.0856C198.949 76.0856 198.227 75.3637 198.227 74.4975C198.227 73.6312 198.901 72.9094 199.815 72.9094ZM199.815 72.4281C198.66 72.4281 197.746 73.3425 197.746 74.4975C197.746 75.6525 198.66 76.5668 199.815 76.5668C200.97 76.5668 201.884 75.6525 201.884 74.4975C201.884 73.3425 200.922 72.4281 199.815 72.4281Z" fill="#615F58"></path> <path d="M230.086 72.9094C230.952 72.9094 231.674 73.6312 231.674 74.4975C231.674 75.3637 230.952 76.0856 230.086 76.0856C229.219 76.0856 228.497 75.3637 228.497 74.4975C228.497 73.6312 229.219 72.9094 230.086 72.9094ZM230.086 72.4281C228.931 72.4281 228.016 73.3425 228.016 74.4975C228.016 75.6525 228.931 76.5668 230.086 76.5668C231.241 76.5668 232.155 75.6525 232.155 74.4975C232.155 73.3425 231.241 72.4281 230.086 72.4281Z" fill="#615F58"></path> <path d="M290.531 72.9094C291.397 72.9094 292.119 73.6312 292.119 74.4975C292.119 75.3637 291.397 76.0856 290.531 76.0856C289.664 76.0856 288.943 75.3637 288.943 74.4975C288.943 73.6312 289.664 72.9094 290.531 72.9094ZM290.531 72.4281C289.376 72.4281 288.461 73.3425 288.461 74.4975C288.461 75.6525 289.376 76.5668 290.531 76.5668C291.686 76.5668 292.6 75.6525 292.6 74.4975C292.6 73.3425 291.686 72.4281 290.531 72.4281Z" fill="#615F58"></path> <path d="M320.849 72.9094C321.716 72.9094 322.438 73.6312 322.438 74.4975C322.438 75.3637 321.716 76.0856 320.849 76.0856C319.983 76.0856 319.261 75.3637 319.261 74.4975C319.261 73.6312 319.983 72.9094 320.849 72.9094ZM320.849 72.4281C319.694 72.4281 318.78 73.3425 318.78 74.4975C318.78 75.6525 319.694 76.5668 320.849 76.5668C322.004 76.5668 322.919 75.6525 322.919 74.4975C322.919 73.3425 322.004 72.4281 320.849 72.4281Z" fill="#615F58"></path> <path d="M381.294 72.9094C382.161 72.9094 382.882 73.6312 382.882 74.4975C382.882 75.3637 382.161 76.0856 381.294 76.0856C380.428 76.0856 379.706 75.3637 379.706 74.4975C379.706 73.6312 380.428 72.9094 381.294 72.9094ZM381.294 72.4281C380.139 72.4281 379.225 73.3425 379.225 74.4975C379.225 75.6525 380.139 76.5668 381.294 76.5668C382.449 76.5668 383.364 75.6525 383.364 74.4975C383.364 73.3425 382.449 72.4281 381.294 72.4281Z" fill="#615F58"></path> <path d="M3.5131 99.1375C4.37935 99.1375 5.10123 99.8594 5.10123 100.726C5.10123 101.592 4.37935 102.314 3.5131 102.314C2.64685 102.314 1.92498 101.64 1.92498 100.726C1.92498 99.8594 2.59873 99.1375 3.5131 99.1375ZM3.5131 98.6562C2.3581 98.6562 1.44373 99.6188 1.44373 100.726C1.44373 101.881 2.3581 102.795 3.5131 102.795C4.6681 102.795 5.58248 101.881 5.58248 100.726C5.58248 99.6188 4.6681 98.6562 3.5131 98.6562Z" fill="#615F58"></path> <path d="M63.958 99.1375C64.8243 99.1375 65.5462 99.8594 65.5462 100.726C65.5462 101.592 64.8243 102.314 63.958 102.314C63.0918 102.314 62.3699 101.592 62.3699 100.726C62.3699 99.8594 63.0918 99.1375 63.958 99.1375ZM63.958 98.6562C62.803 98.6562 61.8887 99.5706 61.8887 100.726C61.8887 101.881 62.803 102.795 63.958 102.795C65.113 102.795 66.0274 101.881 66.0274 100.726C66.0274 99.6188 65.113 98.6562 63.958 98.6562Z" fill="#615F58"></path> <path d="M94.2768 99.1375C95.1431 99.1375 95.865 99.8594 95.865 100.726C95.865 101.592 95.1431 102.314 94.2768 102.314C93.4106 102.314 92.6887 101.592 92.6887 100.726C92.6406 99.8594 93.3625 99.1375 94.2768 99.1375ZM94.2768 98.6562C93.1218 98.6562 92.2075 99.5706 92.2075 100.726C92.2075 101.881 93.1218 102.795 94.2768 102.795C95.4318 102.795 96.3462 101.881 96.3462 100.726C96.3462 99.6188 95.3837 98.6562 94.2768 98.6562Z" fill="#615F58"></path> <path d="M154.722 99.1375C155.588 99.1375 156.31 99.8594 156.31 100.726C156.31 101.592 155.588 102.314 154.722 102.314C153.856 102.314 153.134 101.592 153.134 100.726C153.086 99.8594 153.808 99.1375 154.722 99.1375ZM154.722 98.6562C153.567 98.6562 152.653 99.5706 152.653 100.726C152.653 101.881 153.567 102.795 154.722 102.795C155.877 102.795 156.791 101.881 156.791 100.726C156.791 99.6188 155.877 98.6562 154.722 98.6562Z" fill="#615F58"></path> <path d="M184.992 99.1375C185.859 99.1375 186.581 99.8594 186.581 100.726C186.581 101.592 185.859 102.314 184.992 102.314C184.126 102.314 183.404 101.592 183.404 100.726C183.404 99.8594 184.126 99.1375 184.992 99.1375ZM184.992 98.6562C183.837 98.6562 182.923 99.5706 182.923 100.726C182.923 101.881 183.837 102.795 184.992 102.795C186.147 102.795 187.062 101.881 187.062 100.726C187.11 99.6188 186.147 98.6562 184.992 98.6562Z" fill="#615F58"></path> <path d="M245.486 99.1375C246.352 99.1375 247.074 99.8594 247.074 100.726C247.074 101.592 246.352 102.314 245.486 102.314C244.619 102.314 243.897 101.592 243.897 100.726C243.849 99.8594 244.571 99.1375 245.486 99.1375ZM245.486 98.6562C244.331 98.6562 243.416 99.5706 243.416 100.726C243.416 101.881 244.331 102.795 245.486 102.795C246.641 102.795 247.555 101.881 247.555 100.726C247.555 99.6188 246.592 98.6562 245.486 98.6562Z" fill="#615F58"></path> <path d="M275.756 99.1375C276.623 99.1375 277.344 99.8594 277.344 100.726C277.344 101.592 276.623 102.314 275.756 102.314C274.89 102.314 274.168 101.592 274.168 100.726C274.168 99.8594 274.89 99.1375 275.756 99.1375ZM275.756 98.6562C274.601 98.6562 273.687 99.5706 273.687 100.726C273.687 101.881 274.601 102.795 275.756 102.795C276.911 102.795 277.826 101.881 277.826 100.726C277.826 99.6188 276.911 98.6562 275.756 98.6562Z" fill="#615F58"></path> <path d="M336.201 99.1375C337.067 99.1375 337.789 99.8594 337.789 100.726C337.789 101.592 337.067 102.314 336.201 102.314C335.335 102.314 334.613 101.592 334.613 100.726C334.613 99.8594 335.335 99.1375 336.201 99.1375ZM336.201 98.6562C335.046 98.6562 334.132 99.5706 334.132 100.726C334.132 101.881 335.046 102.795 336.201 102.795C337.356 102.795 338.271 101.881 338.271 100.726C338.319 99.6188 337.356 98.6562 336.201 98.6562Z" fill="#615F58"></path> <path d="M366.52 99.1375C367.386 99.1375 368.108 99.8594 368.108 100.726C368.108 101.592 367.386 102.314 366.52 102.314C365.654 102.314 364.932 101.592 364.932 100.726C364.932 99.8594 365.654 99.1375 366.52 99.1375ZM366.52 98.6562C365.365 98.6562 364.451 99.5706 364.451 100.726C364.451 101.881 365.365 102.795 366.52 102.795C367.675 102.795 368.589 101.881 368.589 100.726C368.589 99.6188 367.675 98.6562 366.52 98.6562Z" fill="#615F58"></path> <path d="M18.2875 125.125C19.1538 125.125 19.8756 125.847 19.8756 126.713C19.8756 127.579 19.1538 128.301 18.2875 128.301C17.4213 128.301 16.6994 127.579 16.6994 126.713C16.6994 125.799 17.4213 125.125 18.2875 125.125ZM18.2875 124.644C17.1325 124.644 16.2181 125.558 16.2181 126.713C16.2181 127.868 17.1325 128.782 18.2875 128.782C19.4425 128.782 20.3569 127.868 20.3569 126.713C20.3569 125.558 19.4425 124.644 18.2875 124.644Z" fill="#615F58"></path> <path d="M48.6062 125.125C49.4725 125.125 50.1944 125.847 50.1944 126.713C50.1944 127.579 49.4725 128.301 48.6062 128.301C47.74 128.301 47.0181 127.579 47.0181 126.713C46.97 125.799 47.6919 125.125 48.6062 125.125ZM48.6062 124.644C47.4512 124.644 46.5369 125.558 46.5369 126.713C46.5369 127.868 47.4512 128.782 48.6062 128.782C49.7612 128.782 50.6756 127.868 50.6756 126.713C50.6756 125.558 49.7612 124.644 48.6062 124.644Z" fill="#615F58"></path> <path d="M109.051 125.125C109.917 125.125 110.639 125.847 110.639 126.713C110.639 127.579 109.917 128.301 109.051 128.301C108.185 128.301 107.463 127.579 107.463 126.713C107.463 125.799 108.137 125.125 109.051 125.125ZM109.051 124.644C107.896 124.644 106.982 125.558 106.982 126.713C106.982 127.868 107.896 128.782 109.051 128.782C110.206 128.782 111.121 127.868 111.121 126.713C111.121 125.558 110.206 124.644 109.051 124.644Z" fill="#615F58"></path> <path d="M139.322 125.125C140.188 125.125 140.91 125.847 140.91 126.713C140.91 127.579 140.188 128.301 139.322 128.301C138.456 128.301 137.734 127.579 137.734 126.713C137.734 125.799 138.456 125.125 139.322 125.125ZM139.322 124.644C138.167 124.644 137.253 125.558 137.253 126.713C137.253 127.868 138.167 128.782 139.322 128.782C140.477 128.782 141.391 127.868 141.391 126.713C141.439 125.558 140.477 124.644 139.322 124.644Z" fill="#615F58"></path> <path d="M199.815 125.125C200.681 125.125 201.403 125.847 201.403 126.713C201.403 127.579 200.681 128.301 199.815 128.301C198.949 128.301 198.227 127.579 198.227 126.713C198.179 125.799 198.901 125.125 199.815 125.125ZM199.815 124.644C198.66 124.644 197.746 125.558 197.746 126.713C197.746 127.868 198.66 128.782 199.815 128.782C200.97 128.782 201.884 127.868 201.884 126.713C201.884 125.558 200.922 124.644 199.815 124.644Z" fill="#615F58"></path> <path d="M230.086 125.125C230.952 125.125 231.674 125.847 231.674 126.713C231.674 127.579 230.952 128.301 230.086 128.301C229.219 128.301 228.497 127.579 228.497 126.713C228.497 125.799 229.219 125.125 230.086 125.125ZM230.086 124.644C228.931 124.644 228.016 125.558 228.016 126.713C228.016 127.868 228.931 128.782 230.086 128.782C231.241 128.782 232.155 127.868 232.155 126.713C232.203 125.558 231.241 124.644 230.086 124.644Z" fill="#615F58"></path> <path d="M290.531 125.125C291.397 125.125 292.119 125.847 292.119 126.713C292.119 127.579 291.397 128.301 290.531 128.301C289.664 128.301 288.943 127.579 288.943 126.713C288.943 125.799 289.664 125.125 290.531 125.125ZM290.531 124.644C289.376 124.644 288.461 125.558 288.461 126.713C288.461 127.868 289.376 128.782 290.531 128.782C291.686 128.782 292.6 127.868 292.6 126.713C292.648 125.558 291.686 124.644 290.531 124.644Z" fill="#615F58"></path> <path d="M320.849 125.125C321.716 125.125 322.438 125.847 322.438 126.713C322.438 127.579 321.716 128.301 320.849 128.301C319.983 128.301 319.261 127.579 319.261 126.713C319.261 125.799 319.983 125.125 320.849 125.125ZM320.849 124.644C319.694 124.644 318.78 125.558 318.78 126.713C318.78 127.868 319.694 128.782 320.849 128.782C322.004 128.782 322.919 127.868 322.919 126.713C322.919 125.558 322.004 124.644 320.849 124.644Z" fill="#615F58"></path> <path d="M381.294 125.125C382.161 125.125 382.882 125.847 382.882 126.713C382.882 127.579 382.161 128.301 381.294 128.301C380.428 128.301 379.706 127.579 379.706 126.713C379.706 125.799 380.428 125.125 381.294 125.125ZM381.294 124.644C380.139 124.644 379.225 125.558 379.225 126.713C379.225 127.868 380.139 128.782 381.294 128.782C382.449 128.782 383.364 127.868 383.364 126.713C383.364 125.558 382.449 124.644 381.294 124.644Z" fill="#615F58"></path> <path d="M3.5131 151.353C4.37935 151.353 5.10123 152.075 5.10123 152.941C5.10123 153.807 4.37935 154.529 3.5131 154.529C2.64685 154.529 1.92498 153.856 1.92498 152.941C1.92498 152.075 2.59873 151.353 3.5131 151.353ZM3.5131 150.872C2.3581 150.872 1.44373 151.786 1.44373 152.941C1.44373 154.096 2.3581 155.011 3.5131 155.011C4.6681 155.011 5.58248 154.096 5.58248 152.941C5.58248 151.834 4.6681 150.872 3.5131 150.872Z" fill="#615F58"></path> <path d="M63.958 151.353C64.8243 151.353 65.5462 152.075 65.5462 152.941C65.5462 153.807 64.8243 154.529 63.958 154.529C63.0918 154.529 62.3699 153.807 62.3699 152.941C62.3699 152.075 63.0918 151.353 63.958 151.353ZM63.958 150.872C62.803 150.872 61.8887 151.786 61.8887 152.941C61.8887 154.096 62.803 155.011 63.958 155.011C65.113 155.011 66.0274 154.096 66.0274 152.941C66.0274 151.834 65.113 150.872 63.958 150.872Z" fill="#615F58"></path> <path d="M94.2768 151.353C95.1431 151.353 95.865 152.075 95.865 152.941C95.865 153.807 95.1431 154.529 94.2768 154.529C93.4106 154.529 92.6887 153.807 92.6887 152.941C92.6406 152.075 93.3625 151.353 94.2768 151.353ZM94.2768 150.872C93.1218 150.872 92.2075 151.786 92.2075 152.941C92.2075 154.096 93.1218 155.011 94.2768 155.011C95.4318 155.011 96.3462 154.096 96.3462 152.941C96.3462 151.834 95.3837 150.872 94.2768 150.872Z" fill="#615F58"></path> <path d="M154.722 151.353C155.588 151.353 156.31 152.075 156.31 152.941C156.31 153.807 155.588 154.529 154.722 154.529C153.856 154.529 153.134 153.807 153.134 152.941C153.086 152.075 153.808 151.353 154.722 151.353ZM154.722 150.872C153.567 150.872 152.653 151.786 152.653 152.941C152.653 154.096 153.567 155.011 154.722 155.011C155.877 155.011 156.791 154.096 156.791 152.941C156.791 151.834 155.877 150.872 154.722 150.872Z" fill="#615F58"></path> <path d="M184.992 151.353C185.859 151.353 186.581 152.075 186.581 152.941C186.581 153.807 185.859 154.529 184.992 154.529C184.126 154.529 183.404 153.807 183.404 152.941C183.404 152.075 184.126 151.353 184.992 151.353ZM184.992 150.872C183.837 150.872 182.923 151.786 182.923 152.941C182.923 154.096 183.837 155.011 184.992 155.011C186.147 155.011 187.062 154.096 187.062 152.941C187.11 151.834 186.147 150.872 184.992 150.872Z" fill="#615F58"></path> <path d="M245.486 151.353C246.352 151.353 247.074 152.075 247.074 152.941C247.074 153.807 246.352 154.529 245.486 154.529C244.619 154.529 243.897 153.807 243.897 152.941C243.849 152.075 244.571 151.353 245.486 151.353ZM245.486 150.872C244.331 150.872 243.416 151.786 243.416 152.941C243.416 154.096 244.331 155.011 245.486 155.011C246.641 155.011 247.555 154.096 247.555 152.941C247.555 151.834 246.592 150.872 245.486 150.872Z" fill="#615F58"></path> <path d="M275.756 151.353C276.623 151.353 277.344 152.075 277.344 152.941C277.344 153.807 276.623 154.529 275.756 154.529C274.89 154.529 274.168 153.807 274.168 152.941C274.168 152.075 274.89 151.353 275.756 151.353ZM275.756 150.872C274.601 150.872 273.687 151.786 273.687 152.941C273.687 154.096 274.601 155.011 275.756 155.011C276.911 155.011 277.826 154.096 277.826 152.941C277.826 151.834 276.911 150.872 275.756 150.872Z" fill="#615F58"></path> <path d="M336.201 151.353C337.067 151.353 337.789 152.075 337.789 152.941C337.789 153.807 337.067 154.529 336.201 154.529C335.335 154.529 334.613 153.807 334.613 152.941C334.613 152.075 335.335 151.353 336.201 151.353ZM336.201 150.872C335.046 150.872 334.132 151.786 334.132 152.941C334.132 154.096 335.046 155.011 336.201 155.011C337.356 155.011 338.271 154.096 338.271 152.941C338.319 151.834 337.356 150.872 336.201 150.872Z" fill="#615F58"></path> <path d="M366.52 151.353C367.386 151.353 368.108 152.075 368.108 152.941C368.108 153.807 367.386 154.529 366.52 154.529C365.654 154.529 364.932 153.807 364.932 152.941C364.932 152.075 365.654 151.353 366.52 151.353ZM366.52 150.872C365.365 150.872 364.451 151.786 364.451 152.941C364.451 154.096 365.365 155.011 366.52 155.011C367.675 155.011 368.589 154.096 368.589 152.941C368.589 151.834 367.675 150.872 366.52 150.872Z" fill="#615F58"></path> <path d="M18.2875 177.341C19.1538 177.341 19.8756 178.062 19.8756 178.929C19.8756 179.795 19.1538 180.517 18.2875 180.517C17.4213 180.517 16.6994 179.795 16.6994 178.929C16.6994 178.014 17.4213 177.341 18.2875 177.341ZM18.2875 176.859C17.1325 176.859 16.2181 177.774 16.2181 178.929C16.2181 180.084 17.1325 180.998 18.2875 180.998C19.4425 180.998 20.3569 180.084 20.3569 178.929C20.3569 177.774 19.4425 176.859 18.2875 176.859Z" fill="#615F58"></path> <path d="M48.6062 177.341C49.4725 177.341 50.1944 178.062 50.1944 178.929C50.1944 179.795 49.4725 180.517 48.6062 180.517C47.74 180.517 47.0181 179.795 47.0181 178.929C46.97 178.014 47.6919 177.341 48.6062 177.341ZM48.6062 176.859C47.4512 176.859 46.5369 177.774 46.5369 178.929C46.5369 180.084 47.4512 180.998 48.6062 180.998C49.7612 180.998 50.6756 180.084 50.6756 178.929C50.6756 177.774 49.7612 176.859 48.6062 176.859Z" fill="#615F58"></path> <path d="M109.051 177.341C109.917 177.341 110.639 178.062 110.639 178.929C110.639 179.795 109.917 180.517 109.051 180.517C108.185 180.517 107.463 179.795 107.463 178.929C107.463 178.014 108.137 177.341 109.051 177.341ZM109.051 176.859C107.896 176.859 106.982 177.774 106.982 178.929C106.982 180.084 107.896 180.998 109.051 180.998C110.206 180.998 111.121 180.084 111.121 178.929C111.121 177.774 110.206 176.859 109.051 176.859Z" fill="#615F58"></path> <path d="M139.322 177.341C140.188 177.341 140.91 178.062 140.91 178.929C140.91 179.795 140.188 180.517 139.322 180.517C138.456 180.517 137.734 179.795 137.734 178.929C137.734 178.014 138.456 177.341 139.322 177.341ZM139.322 176.859C138.167 176.859 137.253 177.774 137.253 178.929C137.253 180.084 138.167 180.998 139.322 180.998C140.477 180.998 141.391 180.084 141.391 178.929C141.439 177.774 140.477 176.859 139.322 176.859Z" fill="#615F58"></path> <path d="M199.815 177.341C200.681 177.341 201.403 178.062 201.403 178.929C201.403 179.795 200.681 180.517 199.815 180.517C198.949 180.517 198.227 179.795 198.227 178.929C198.179 178.014 198.901 177.341 199.815 177.341ZM199.815 176.859C198.66 176.859 197.746 177.774 197.746 178.929C197.746 180.084 198.66 180.998 199.815 180.998C200.97 180.998 201.884 180.084 201.884 178.929C201.884 177.774 200.922 176.859 199.815 176.859Z" fill="#615F58"></path> <path d="M230.086 177.341C230.952 177.341 231.674 178.062 231.674 178.929C231.674 179.795 230.952 180.517 230.086 180.517C229.219 180.517 228.497 179.795 228.497 178.929C228.497 178.014 229.219 177.341 230.086 177.341ZM230.086 176.859C228.931 176.859 228.016 177.774 228.016 178.929C228.016 180.084 228.931 180.998 230.086 180.998C231.241 180.998 232.155 180.084 232.155 178.929C232.203 177.774 231.241 176.859 230.086 176.859Z" fill="#615F58"></path> <path d="M290.531 177.341C291.397 177.341 292.119 178.062 292.119 178.929C292.119 179.795 291.397 180.517 290.531 180.517C289.664 180.517 288.943 179.795 288.943 178.929C288.943 178.014 289.664 177.341 290.531 177.341ZM290.531 176.859C289.376 176.859 288.461 177.774 288.461 178.929C288.461 180.084 289.376 180.998 290.531 180.998C291.686 180.998 292.6 180.084 292.6 178.929C292.648 177.774 291.686 176.859 290.531 176.859Z" fill="#615F58"></path> <path d="M320.849 177.341C321.716 177.341 322.438 178.062 322.438 178.929C322.438 179.795 321.716 180.517 320.849 180.517C319.983 180.517 319.261 179.795 319.261 178.929C319.261 178.014 319.983 177.341 320.849 177.341ZM320.849 176.859C319.694 176.859 318.78 177.774 318.78 178.929C318.78 180.084 319.694 180.998 320.849 180.998C322.004 180.998 322.919 180.084 322.919 178.929C322.919 177.774 322.004 176.859 320.849 176.859Z" fill="#615F58"></path> <path d="M381.294 177.341C382.161 177.341 382.882 178.062 382.882 178.929C382.882 179.795 382.161 180.517 381.294 180.517C380.428 180.517 379.706 179.795 379.706 178.929C379.706 178.014 380.428 177.341 381.294 177.341ZM381.294 176.859C380.139 176.859 379.225 177.774 379.225 178.929C379.225 180.084 380.139 180.998 381.294 180.998C382.449 180.998 383.364 180.084 383.364 178.929C383.364 177.774 382.449 176.859 381.294 176.859Z" fill="#615F58"></path> <path d="M3.5131 203.569C4.37935 203.569 5.10123 204.291 5.10123 205.157C5.10123 206.023 4.37935 206.745 3.5131 206.745C2.64685 206.745 1.92498 206.071 1.92498 205.157C1.92498 204.291 2.59873 203.569 3.5131 203.569ZM3.5131 203.087C2.3581 203.087 1.44373 204.05 1.44373 205.157C1.44373 206.264 2.3581 207.226 3.5131 207.226C4.6681 207.226 5.58248 206.312 5.58248 205.157C5.58248 204.002 4.6681 203.087 3.5131 203.087Z" fill="#615F58"></path> <path d="M63.958 203.569C64.8243 203.569 65.5462 204.291 65.5462 205.157C65.5462 206.023 64.8243 206.745 63.958 206.745C63.0918 206.745 62.3699 206.023 62.3699 205.157C62.3699 204.291 63.0918 203.569 63.958 203.569ZM63.958 203.087C62.803 203.087 61.8887 204.002 61.8887 205.157C61.8887 206.312 62.803 207.226 63.958 207.226C65.113 207.226 66.0274 206.312 66.0274 205.157C66.0274 204.002 65.113 203.087 63.958 203.087Z" fill="#615F58"></path> <path d="M94.2768 203.569C95.1431 203.569 95.865 204.291 95.865 205.157C95.865 206.023 95.1431 206.745 94.2768 206.745C93.4106 206.745 92.6887 206.023 92.6887 205.157C92.6406 204.291 93.3625 203.569 94.2768 203.569ZM94.2768 203.087C93.1218 203.087 92.2075 204.002 92.2075 205.157C92.2075 206.312 93.1218 207.226 94.2768 207.226C95.4318 207.226 96.3462 206.312 96.3462 205.157C96.3462 204.002 95.3837 203.087 94.2768 203.087Z" fill="#615F58"></path> <path d="M154.722 203.569C155.588 203.569 156.31 204.291 156.31 205.157C156.31 206.023 155.588 206.745 154.722 206.745C153.856 206.745 153.134 206.023 153.134 205.157C153.086 204.291 153.808 203.569 154.722 203.569ZM154.722 203.087C153.567 203.087 152.653 204.002 152.653 205.157C152.653 206.312 153.567 207.226 154.722 207.226C155.877 207.226 156.791 206.312 156.791 205.157C156.791 204.002 155.877 203.087 154.722 203.087Z" fill="#615F58"></path> <path d="M184.992 203.569C185.859 203.569 186.581 204.291 186.581 205.157C186.581 206.023 185.859 206.745 184.992 206.745C184.126 206.745 183.404 206.023 183.404 205.157C183.404 204.291 184.126 203.569 184.992 203.569ZM184.992 203.087C183.837 203.087 182.923 204.002 182.923 205.157C182.923 206.312 183.837 207.226 184.992 207.226C186.147 207.226 187.062 206.312 187.062 205.157C187.062 204.002 186.147 203.087 184.992 203.087Z" fill="#615F58"></path> <path d="M245.486 203.569C246.352 203.569 247.074 204.291 247.074 205.157C247.074 206.023 246.352 206.745 245.486 206.745C244.619 206.745 243.897 206.023 243.897 205.157C243.849 204.291 244.571 203.569 245.486 203.569ZM245.486 203.087C244.331 203.087 243.416 204.002 243.416 205.157C243.416 206.312 244.331 207.226 245.486 207.226C246.641 207.226 247.555 206.312 247.555 205.157C247.555 204.002 246.592 203.087 245.486 203.087Z" fill="#615F58"></path> <path d="M275.756 203.569C276.623 203.569 277.344 204.291 277.344 205.157C277.344 206.023 276.623 206.745 275.756 206.745C274.89 206.745 274.168 206.023 274.168 205.157C274.168 204.291 274.89 203.569 275.756 203.569ZM275.756 203.087C274.601 203.087 273.687 204.002 273.687 205.157C273.687 206.312 274.601 207.226 275.756 207.226C276.911 207.226 277.826 206.312 277.826 205.157C277.826 204.002 276.911 203.087 275.756 203.087Z" fill="#615F58"></path> <path d="M336.201 203.569C337.067 203.569 337.789 204.291 337.789 205.157C337.789 206.023 337.067 206.745 336.201 206.745C335.335 206.745 334.613 206.023 334.613 205.157C334.613 204.291 335.335 203.569 336.201 203.569ZM336.201 203.087C335.046 203.087 334.132 204.002 334.132 205.157C334.132 206.312 335.046 207.226 336.201 207.226C337.356 207.226 338.271 206.312 338.271 205.157C338.271 204.002 337.356 203.087 336.201 203.087Z" fill="#615F58"></path> <path d="M366.52 203.569C367.386 203.569 368.108 204.291 368.108 205.157C368.108 206.023 367.386 206.745 366.52 206.745C365.654 206.745 364.932 206.023 364.932 205.157C364.932 204.291 365.654 203.569 366.52 203.569ZM366.52 203.087C365.365 203.087 364.451 204.002 364.451 205.157C364.451 206.312 365.365 207.226 366.52 207.226C367.675 207.226 368.589 206.312 368.589 205.157C368.589 204.002 367.675 203.087 366.52 203.087Z" fill="#615F58"></path> <path d="M18.2875 229.556C19.1538 229.556 19.8756 230.278 19.8756 231.144C19.8756 232.011 19.1538 232.732 18.2875 232.732C17.4213 232.732 16.6994 232.011 16.6994 231.144C16.6994 230.23 17.4213 229.556 18.2875 229.556ZM18.2875 229.075C17.1325 229.075 16.2181 229.989 16.2181 231.144C16.2181 232.299 17.1325 233.214 18.2875 233.214C19.4425 233.214 20.3569 232.299 20.3569 231.144C20.3569 229.989 19.4425 229.075 18.2875 229.075Z" fill="#615F58"></path> <path d="M48.6062 229.556C49.4725 229.556 50.1944 230.278 50.1944 231.144C50.1944 232.011 49.4725 232.732 48.6062 232.732C47.74 232.732 47.0181 232.011 47.0181 231.144C46.97 230.23 47.6919 229.556 48.6062 229.556ZM48.6062 229.075C47.4512 229.075 46.5369 229.989 46.5369 231.144C46.5369 232.299 47.4512 233.214 48.6062 233.214C49.7612 233.214 50.6756 232.299 50.6756 231.144C50.6756 229.989 49.7612 229.075 48.6062 229.075Z" fill="#615F58"></path> <path d="M109.051 229.556C109.917 229.556 110.639 230.278 110.639 231.144C110.639 232.011 109.917 232.732 109.051 232.732C108.185 232.732 107.463 232.011 107.463 231.144C107.463 230.23 108.137 229.556 109.051 229.556ZM109.051 229.075C107.896 229.075 106.982 229.989 106.982 231.144C106.982 232.299 107.896 233.214 109.051 233.214C110.206 233.214 111.121 232.299 111.121 231.144C111.121 229.989 110.206 229.075 109.051 229.075Z" fill="#615F58"></path> <path d="M139.322 229.556C140.188 229.556 140.91 230.278 140.91 231.144C140.91 232.011 140.188 232.732 139.322 232.732C138.456 232.732 137.734 232.011 137.734 231.144C137.734 230.23 138.456 229.556 139.322 229.556ZM139.322 229.075C138.167 229.075 137.253 229.989 137.253 231.144C137.253 232.299 138.167 233.214 139.322 233.214C140.477 233.214 141.391 232.299 141.391 231.144C141.391 229.989 140.477 229.075 139.322 229.075Z" fill="#615F58"></path> <path d="M199.815 229.556C200.681 229.556 201.403 230.278 201.403 231.144C201.403 232.011 200.681 232.732 199.815 232.732C198.949 232.732 198.227 232.011 198.227 231.144C198.179 230.23 198.901 229.556 199.815 229.556ZM199.815 229.075C198.66 229.075 197.746 229.989 197.746 231.144C197.746 232.299 198.66 233.214 199.815 233.214C200.97 233.214 201.884 232.299 201.884 231.144C201.884 229.989 200.922 229.075 199.815 229.075Z" fill="#615F58"></path> <path d="M230.086 229.556C230.952 229.556 231.674 230.278 231.674 231.144C231.674 232.011 230.952 232.732 230.086 232.732C229.219 232.732 228.497 232.011 228.497 231.144C228.497 230.23 229.219 229.556 230.086 229.556ZM230.086 229.075C228.931 229.075 228.016 229.989 228.016 231.144C228.016 232.299 228.931 233.214 230.086 233.214C231.241 233.214 232.155 232.299 232.155 231.144C232.155 229.989 231.241 229.075 230.086 229.075Z" fill="#615F58"></path> <path d="M290.531 229.556C291.397 229.556 292.119 230.278 292.119 231.144C292.119 232.011 291.397 232.732 290.531 232.732C289.664 232.732 288.943 232.011 288.943 231.144C288.943 230.23 289.664 229.556 290.531 229.556ZM290.531 229.075C289.376 229.075 288.461 229.989 288.461 231.144C288.461 232.299 289.376 233.214 290.531 233.214C291.686 233.214 292.6 232.299 292.6 231.144C292.6 229.989 291.686 229.075 290.531 229.075Z" fill="#615F58"></path> <path d="M320.849 229.556C321.716 229.556 322.438 230.278 322.438 231.144C322.438 232.011 321.716 232.732 320.849 232.732C319.983 232.732 319.261 232.011 319.261 231.144C319.261 230.23 319.983 229.556 320.849 229.556ZM320.849 229.075C319.694 229.075 318.78 229.989 318.78 231.144C318.78 232.299 319.694 233.214 320.849 233.214C322.004 233.214 322.919 232.299 322.919 231.144C322.919 229.989 322.004 229.075 320.849 229.075Z" fill="#615F58"></path> <path d="M381.294 229.556C382.161 229.556 382.882 230.278 382.882 231.144C382.882 232.011 382.161 232.732 381.294 232.732C380.428 232.732 379.706 232.011 379.706 231.144C379.706 230.23 380.428 229.556 381.294 229.556ZM381.294 229.075C380.139 229.075 379.225 229.989 379.225 231.144C379.225 232.299 380.139 233.214 381.294 233.214C382.449 233.214 383.364 232.299 383.364 231.144C383.364 229.989 382.449 229.075 381.294 229.075Z" fill="#615F58"></path> <path d="M3.5131 255.784C4.37935 255.784 5.10123 256.506 5.10123 257.372C5.10123 258.239 4.37935 258.961 3.5131 258.961C2.64685 258.961 1.92498 258.287 1.92498 257.372C1.92498 256.506 2.59873 255.784 3.5131 255.784ZM3.5131 255.303C2.3581 255.303 1.44373 256.217 1.44373 257.372C1.44373 258.527 2.3581 259.442 3.5131 259.442C4.6681 259.442 5.58248 258.527 5.58248 257.372C5.58248 256.217 4.6681 255.303 3.5131 255.303Z" fill="#615F58"></path> <path d="M63.958 255.784C64.8243 255.784 65.5462 256.506 65.5462 257.372C65.5462 258.239 64.8243 258.961 63.958 258.961C63.0918 258.961 62.3699 258.239 62.3699 257.372C62.3699 256.506 63.0918 255.784 63.958 255.784ZM63.958 255.303C62.803 255.303 61.8887 256.217 61.8887 257.372C61.8887 258.527 62.803 259.442 63.958 259.442C65.113 259.442 66.0274 258.527 66.0274 257.372C66.0274 256.217 65.113 255.303 63.958 255.303Z" fill="#615F58"></path> <path d="M94.2768 255.784C95.1431 255.784 95.865 256.506 95.865 257.372C95.865 258.239 95.1431 258.961 94.2768 258.961C93.4106 258.961 92.6887 258.239 92.6887 257.372C92.6406 256.506 93.3625 255.784 94.2768 255.784ZM94.2768 255.303C93.1218 255.303 92.2075 256.217 92.2075 257.372C92.2075 258.527 93.1218 259.442 94.2768 259.442C95.4318 259.442 96.3462 258.527 96.3462 257.372C96.3462 256.217 95.3837 255.303 94.2768 255.303Z" fill="#615F58"></path> <path d="M154.722 255.784C155.588 255.784 156.31 256.506 156.31 257.372C156.31 258.239 155.588 258.961 154.722 258.961C153.856 258.961 153.134 258.239 153.134 257.372C153.086 256.506 153.808 255.784 154.722 255.784ZM154.722 255.303C153.567 255.303 152.653 256.217 152.653 257.372C152.653 258.527 153.567 259.442 154.722 259.442C155.877 259.442 156.791 258.527 156.791 257.372C156.791 256.217 155.877 255.303 154.722 255.303Z" fill="#615F58"></path> <path d="M184.992 255.784C185.859 255.784 186.581 256.506 186.581 257.372C186.581 258.239 185.859 258.961 184.992 258.961C184.126 258.961 183.404 258.239 183.404 257.372C183.404 256.506 184.126 255.784 184.992 255.784ZM184.992 255.303C183.837 255.303 182.923 256.217 182.923 257.372C182.923 258.527 183.837 259.442 184.992 259.442C186.147 259.442 187.062 258.527 187.062 257.372C187.062 256.217 186.147 255.303 184.992 255.303Z" fill="#615F58"></path> <path d="M245.486 255.784C246.352 255.784 247.074 256.506 247.074 257.372C247.074 258.239 246.352 258.961 245.486 258.961C244.619 258.961 243.897 258.239 243.897 257.372C243.849 256.506 244.571 255.784 245.486 255.784ZM245.486 255.303C244.331 255.303 243.416 256.217 243.416 257.372C243.416 258.527 244.331 259.442 245.486 259.442C246.641 259.442 247.555 258.527 247.555 257.372C247.555 256.217 246.592 255.303 245.486 255.303Z" fill="#615F58"></path> <path d="M275.756 255.784C276.623 255.784 277.344 256.506 277.344 257.372C277.344 258.239 276.623 258.961 275.756 258.961C274.89 258.961 274.168 258.239 274.168 257.372C274.168 256.506 274.89 255.784 275.756 255.784ZM275.756 255.303C274.601 255.303 273.687 256.217 273.687 257.372C273.687 258.527 274.601 259.442 275.756 259.442C276.911 259.442 277.826 258.527 277.826 257.372C277.826 256.217 276.911 255.303 275.756 255.303Z" fill="#615F58"></path> <path d="M336.201 255.784C337.067 255.784 337.789 256.506 337.789 257.372C337.789 258.239 337.067 258.961 336.201 258.961C335.335 258.961 334.613 258.239 334.613 257.372C334.613 256.506 335.335 255.784 336.201 255.784ZM336.201 255.303C335.046 255.303 334.132 256.217 334.132 257.372C334.132 258.527 335.046 259.442 336.201 259.442C337.356 259.442 338.271 258.527 338.271 257.372C338.271 256.217 337.356 255.303 336.201 255.303Z" fill="#615F58"></path> <path d="M366.52 255.784C367.386 255.784 368.108 256.506 368.108 257.372C368.108 258.239 367.386 258.961 366.52 258.961C365.654 258.961 364.932 258.239 364.932 257.372C364.932 256.506 365.654 255.784 366.52 255.784ZM366.52 255.303C365.365 255.303 364.451 256.217 364.451 257.372C364.451 258.527 365.365 259.442 366.52 259.442C367.675 259.442 368.589 258.527 368.589 257.372C368.589 256.217 367.675 255.303 366.52 255.303Z" fill="#615F58"></path> <path d="M18.2875 281.772C19.1538 281.772 19.8756 282.494 19.8756 283.36C19.8756 284.226 19.1538 284.948 18.2875 284.948C17.4213 284.948 16.6994 284.226 16.6994 283.36C16.6994 282.446 17.4213 281.772 18.2875 281.772ZM18.2875 281.291C17.1325 281.291 16.2181 282.205 16.2181 283.36C16.2181 284.515 17.1325 285.429 18.2875 285.429C19.4425 285.429 20.3569 284.515 20.3569 283.36C20.3569 282.205 19.4425 281.291 18.2875 281.291Z" fill="#615F58"></path> <path d="M48.6062 281.772C49.4725 281.772 50.1944 282.494 50.1944 283.36C50.1944 284.226 49.4725 284.948 48.6062 284.948C47.74 284.948 47.0181 284.226 47.0181 283.36C46.97 282.446 47.6919 281.772 48.6062 281.772ZM48.6062 281.291C47.4512 281.291 46.5369 282.205 46.5369 283.36C46.5369 284.515 47.4512 285.429 48.6062 285.429C49.7612 285.429 50.6756 284.515 50.6756 283.36C50.6756 282.205 49.7612 281.291 48.6062 281.291Z" fill="#615F58"></path> <path d="M109.051 281.772C109.917 281.772 110.639 282.494 110.639 283.36C110.639 284.226 109.917 284.948 109.051 284.948C108.185 284.948 107.463 284.226 107.463 283.36C107.463 282.446 108.137 281.772 109.051 281.772ZM109.051 281.291C107.896 281.291 106.982 282.205 106.982 283.36C106.982 284.515 107.896 285.429 109.051 285.429C110.206 285.429 111.121 284.515 111.121 283.36C111.121 282.205 110.206 281.291 109.051 281.291Z" fill="#615F58"></path> <path d="M139.322 281.772C140.188 281.772 140.91 282.494 140.91 283.36C140.91 284.226 140.188 284.948 139.322 284.948C138.456 284.948 137.734 284.226 137.734 283.36C137.734 282.446 138.456 281.772 139.322 281.772ZM139.322 281.291C138.167 281.291 137.253 282.205 137.253 283.36C137.253 284.515 138.167 285.429 139.322 285.429C140.477 285.429 141.391 284.515 141.391 283.36C141.391 282.205 140.477 281.291 139.322 281.291Z" fill="#615F58"></path> <path d="M199.815 281.772C200.681 281.772 201.403 282.494 201.403 283.36C201.403 284.226 200.681 284.948 199.815 284.948C198.949 284.948 198.227 284.226 198.227 283.36C198.179 282.446 198.901 281.772 199.815 281.772ZM199.815 281.291C198.66 281.291 197.746 282.205 197.746 283.36C197.746 284.515 198.66 285.429 199.815 285.429C200.97 285.429 201.884 284.515 201.884 283.36C201.884 282.205 200.922 281.291 199.815 281.291Z" fill="#615F58"></path> <path d="M230.086 281.772C230.952 281.772 231.674 282.494 231.674 283.36C231.674 284.226 230.952 284.948 230.086 284.948C229.219 284.948 228.497 284.226 228.497 283.36C228.497 282.446 229.219 281.772 230.086 281.772ZM230.086 281.291C228.931 281.291 228.016 282.205 228.016 283.36C228.016 284.515 228.931 285.429 230.086 285.429C231.241 285.429 232.155 284.515 232.155 283.36C232.155 282.205 231.241 281.291 230.086 281.291Z" fill="#615F58"></path> <path d="M290.531 281.772C291.397 281.772 292.119 282.494 292.119 283.36C292.119 284.226 291.397 284.948 290.531 284.948C289.664 284.948 288.943 284.226 288.943 283.36C288.943 282.446 289.664 281.772 290.531 281.772ZM290.531 281.291C289.376 281.291 288.461 282.205 288.461 283.36C288.461 284.515 289.376 285.429 290.531 285.429C291.686 285.429 292.6 284.515 292.6 283.36C292.6 282.205 291.686 281.291 290.531 281.291Z" fill="#615F58"></path> <path d="M320.849 281.772C321.716 281.772 322.438 282.494 322.438 283.36C322.438 284.226 321.716 284.948 320.849 284.948C319.983 284.948 319.261 284.226 319.261 283.36C319.261 282.446 319.983 281.772 320.849 281.772ZM320.849 281.291C319.694 281.291 318.78 282.205 318.78 283.36C318.78 284.515 319.694 285.429 320.849 285.429C322.004 285.429 322.919 284.515 322.919 283.36C322.919 282.205 322.004 281.291 320.849 281.291Z" fill="#615F58"></path> <path d="M381.294 281.772C382.161 281.772 382.882 282.494 382.882 283.36C382.882 284.226 382.161 284.948 381.294 284.948C380.428 284.948 379.706 284.226 379.706 283.36C379.706 282.446 380.428 281.772 381.294 281.772ZM381.294 281.291C380.139 281.291 379.225 282.205 379.225 283.36C379.225 284.515 380.139 285.429 381.294 285.429C382.449 285.429 383.364 284.515 383.364 283.36C383.364 282.205 382.449 281.291 381.294 281.291Z" fill="#615F58"></path> <path d="M3.5131 308C4.37935 308 5.10123 308.722 5.10123 309.588C5.10123 310.454 4.37935 311.176 3.5131 311.176C2.64685 311.176 1.92498 310.502 1.92498 309.588C1.92498 308.722 2.59873 308 3.5131 308ZM3.5131 307.519C2.3581 307.519 1.44373 308.481 1.44373 309.588C1.44373 310.695 2.3581 311.657 3.5131 311.657C4.6681 311.657 5.58248 310.743 5.58248 309.588C5.58248 308.433 4.6681 307.519 3.5131 307.519Z" fill="#615F58"></path> <path d="M63.958 308C64.8243 308 65.5462 308.722 65.5462 309.588C65.5462 310.454 64.8243 311.176 63.958 311.176C63.0918 311.176 62.3699 310.454 62.3699 309.588C62.3699 308.722 63.0918 308 63.958 308ZM63.958 307.519C62.803 307.519 61.8887 308.433 61.8887 309.588C61.8887 310.743 62.803 311.657 63.958 311.657C65.113 311.657 66.0274 310.743 66.0274 309.588C66.0274 308.433 65.113 307.519 63.958 307.519Z" fill="#615F58"></path> <path d="M94.2768 308C95.1431 308 95.865 308.722 95.865 309.588C95.865 310.454 95.1431 311.176 94.2768 311.176C93.4106 311.176 92.6887 310.454 92.6887 309.588C92.6406 308.722 93.3625 308 94.2768 308ZM94.2768 307.519C93.1218 307.519 92.2075 308.433 92.2075 309.588C92.2075 310.743 93.1218 311.657 94.2768 311.657C95.4318 311.657 96.3462 310.743 96.3462 309.588C96.3462 308.433 95.3837 307.519 94.2768 307.519Z" fill="#615F58"></path> <path d="M154.722 308C155.588 308 156.31 308.722 156.31 309.588C156.31 310.454 155.588 311.176 154.722 311.176C153.856 311.176 153.134 310.454 153.134 309.588C153.086 308.722 153.808 308 154.722 308ZM154.722 307.519C153.567 307.519 152.653 308.433 152.653 309.588C152.653 310.743 153.567 311.657 154.722 311.657C155.877 311.657 156.791 310.743 156.791 309.588C156.791 308.433 155.877 307.519 154.722 307.519Z" fill="#615F58"></path> <path d="M184.992 308C185.859 308 186.581 308.722 186.581 309.588C186.581 310.454 185.859 311.176 184.992 311.176C184.126 311.176 183.404 310.454 183.404 309.588C183.404 308.722 184.126 308 184.992 308ZM184.992 307.519C183.837 307.519 182.923 308.433 182.923 309.588C182.923 310.743 183.837 311.657 184.992 311.657C186.147 311.657 187.062 310.743 187.062 309.588C187.062 308.433 186.147 307.519 184.992 307.519Z" fill="#615F58"></path> <path d="M245.486 308C246.352 308 247.074 308.722 247.074 309.588C247.074 310.454 246.352 311.176 245.486 311.176C244.619 311.176 243.897 310.454 243.897 309.588C243.849 308.722 244.571 308 245.486 308ZM245.486 307.519C244.331 307.519 243.416 308.433 243.416 309.588C243.416 310.743 244.331 311.657 245.486 311.657C246.641 311.657 247.555 310.743 247.555 309.588C247.555 308.433 246.592 307.519 245.486 307.519Z" fill="#615F58"></path> <path d="M275.756 308C276.623 308 277.344 308.722 277.344 309.588C277.344 310.454 276.623 311.176 275.756 311.176C274.89 311.176 274.168 310.454 274.168 309.588C274.168 308.722 274.89 308 275.756 308ZM275.756 307.519C274.601 307.519 273.687 308.433 273.687 309.588C273.687 310.743 274.601 311.657 275.756 311.657C276.911 311.657 277.826 310.743 277.826 309.588C277.826 308.433 276.911 307.519 275.756 307.519Z" fill="#615F58"></path> <path d="M336.201 308C337.067 308 337.789 308.722 337.789 309.588C337.789 310.454 337.067 311.176 336.201 311.176C335.335 311.176 334.613 310.454 334.613 309.588C334.613 308.722 335.335 308 336.201 308ZM336.201 307.519C335.046 307.519 334.132 308.433 334.132 309.588C334.132 310.743 335.046 311.657 336.201 311.657C337.356 311.657 338.271 310.743 338.271 309.588C338.271 308.433 337.356 307.519 336.201 307.519Z" fill="#615F58"></path> <path d="M366.52 308C367.386 308 368.108 308.722 368.108 309.588C368.108 310.454 367.386 311.176 366.52 311.176C365.654 311.176 364.932 310.454 364.932 309.588C364.932 308.722 365.654 308 366.52 308ZM366.52 307.519C365.365 307.519 364.451 308.433 364.451 309.588C364.451 310.743 365.365 311.657 366.52 311.657C367.675 311.657 368.589 310.743 368.589 309.588C368.589 308.433 367.675 307.519 366.52 307.519Z" fill="#615F58"></path> <path d="M18.2875 333.987C19.1538 333.987 19.8756 334.709 19.8756 335.576C19.8756 336.442 19.1538 337.164 18.2875 337.164C17.4213 337.164 16.6994 336.442 16.6994 335.576C16.6994 334.661 17.4213 333.987 18.2875 333.987ZM18.2875 333.506C17.1325 333.506 16.2181 334.421 16.2181 335.576C16.2181 336.731 17.1325 337.645 18.2875 337.645C19.4425 337.645 20.3569 336.731 20.3569 335.576C20.3569 334.421 19.4425 333.506 18.2875 333.506Z" fill="#615F58"></path> <path d="M48.6062 333.987C49.4725 333.987 50.1944 334.709 50.1944 335.576C50.1944 336.442 49.4725 337.164 48.6062 337.164C47.74 337.164 47.0181 336.442 47.0181 335.576C46.97 334.661 47.6919 333.987 48.6062 333.987ZM48.6062 333.506C47.4512 333.506 46.5369 334.421 46.5369 335.576C46.5369 336.731 47.4512 337.645 48.6062 337.645C49.7612 337.645 50.6756 336.731 50.6756 335.576C50.6756 334.421 49.7612 333.506 48.6062 333.506Z" fill="#615F58"></path> <path d="M109.051 333.987C109.917 333.987 110.639 334.709 110.639 335.576C110.639 336.442 109.917 337.164 109.051 337.164C108.185 337.164 107.463 336.442 107.463 335.576C107.463 334.661 108.137 333.987 109.051 333.987ZM109.051 333.506C107.896 333.506 106.982 334.421 106.982 335.576C106.982 336.731 107.896 337.645 109.051 337.645C110.206 337.645 111.121 336.731 111.121 335.576C111.121 334.421 110.206 333.506 109.051 333.506Z" fill="#615F58"></path> <path d="M139.322 333.987C140.188 333.987 140.91 334.709 140.91 335.576C140.91 336.442 140.188 337.164 139.322 337.164C138.456 337.164 137.734 336.442 137.734 335.576C137.734 334.661 138.456 333.987 139.322 333.987ZM139.322 333.506C138.167 333.506 137.253 334.421 137.253 335.576C137.253 336.731 138.167 337.645 139.322 337.645C140.477 337.645 141.391 336.731 141.391 335.576C141.391 334.421 140.477 333.506 139.322 333.506Z" fill="#615F58"></path> <path d="M199.815 333.987C200.681 333.987 201.403 334.709 201.403 335.576C201.403 336.442 200.681 337.164 199.815 337.164C198.949 337.164 198.227 336.442 198.227 335.576C198.179 334.661 198.901 333.987 199.815 333.987ZM199.815 333.506C198.66 333.506 197.746 334.421 197.746 335.576C197.746 336.731 198.66 337.645 199.815 337.645C200.97 337.645 201.884 336.731 201.884 335.576C201.884 334.421 200.922 333.506 199.815 333.506Z" fill="#615F58"></path> <path d="M230.086 333.987C230.952 333.987 231.674 334.709 231.674 335.576C231.674 336.442 230.952 337.164 230.086 337.164C229.219 337.164 228.497 336.442 228.497 335.576C228.497 334.661 229.219 333.987 230.086 333.987ZM230.086 333.506C228.931 333.506 228.016 334.421 228.016 335.576C228.016 336.731 228.931 337.645 230.086 337.645C231.241 337.645 232.155 336.731 232.155 335.576C232.155 334.421 231.241 333.506 230.086 333.506Z" fill="#615F58"></path> <path d="M290.531 333.987C291.397 333.987 292.119 334.709 292.119 335.576C292.119 336.442 291.397 337.164 290.531 337.164C289.664 337.164 288.943 336.442 288.943 335.576C288.943 334.661 289.664 333.987 290.531 333.987ZM290.531 333.506C289.376 333.506 288.461 334.421 288.461 335.576C288.461 336.731 289.376 337.645 290.531 337.645C291.686 337.645 292.6 336.731 292.6 335.576C292.6 334.421 291.686 333.506 290.531 333.506Z" fill="#615F58"></path> <path d="M320.849 333.987C321.716 333.987 322.438 334.709 322.438 335.576C322.438 336.442 321.716 337.164 320.849 337.164C319.983 337.164 319.261 336.442 319.261 335.576C319.261 334.661 319.983 333.987 320.849 333.987ZM320.849 333.506C319.694 333.506 318.78 334.421 318.78 335.576C318.78 336.731 319.694 337.645 320.849 337.645C322.004 337.645 322.919 336.731 322.919 335.576C322.919 334.421 322.004 333.506 320.849 333.506Z" fill="#615F58"></path> <path d="M381.294 333.987C382.161 333.987 382.882 334.709 382.882 335.576C382.882 336.442 382.161 337.164 381.294 337.164C380.428 337.164 379.706 336.442 379.706 335.576C379.706 334.661 380.428 333.987 381.294 333.987ZM381.294 333.506C380.139 333.506 379.225 334.421 379.225 335.576C379.225 336.731 380.139 337.645 381.294 337.645C382.449 337.645 383.364 336.731 383.364 335.576C383.364 334.421 382.449 333.506 381.294 333.506Z" fill="#615F58"></path> <path d="M3.5131 360.216C4.37935 360.216 5.10123 360.937 5.10123 361.804C5.10123 362.67 4.37935 363.392 3.5131 363.392C2.64685 363.392 1.92498 362.718 1.92498 361.804C1.92498 360.937 2.59873 360.216 3.5131 360.216ZM3.5131 359.734C2.3581 359.734 1.44373 360.649 1.44373 361.804C1.44373 362.959 2.3581 363.873 3.5131 363.873C4.6681 363.873 5.58248 362.959 5.58248 361.804C5.58248 360.649 4.6681 359.734 3.5131 359.734Z" fill="#615F58"></path> <path d="M63.958 360.216C64.8243 360.216 65.5462 360.937 65.5462 361.804C65.5462 362.67 64.8243 363.392 63.958 363.392C63.0918 363.392 62.3699 362.67 62.3699 361.804C62.3699 360.937 63.0918 360.216 63.958 360.216ZM63.958 359.734C62.803 359.734 61.8887 360.649 61.8887 361.804C61.8887 362.959 62.803 363.873 63.958 363.873C65.113 363.873 66.0274 362.959 66.0274 361.804C66.0274 360.649 65.113 359.734 63.958 359.734Z" fill="#615F58"></path> <path d="M94.2768 360.216C95.1431 360.216 95.865 360.937 95.865 361.804C95.865 362.67 95.1431 363.392 94.2768 363.392C93.4106 363.392 92.6887 362.67 92.6887 361.804C92.6406 360.937 93.3625 360.216 94.2768 360.216ZM94.2768 359.734C93.1218 359.734 92.2075 360.649 92.2075 361.804C92.2075 362.959 93.1218 363.873 94.2768 363.873C95.4318 363.873 96.3462 362.959 96.3462 361.804C96.3462 360.649 95.3837 359.734 94.2768 359.734Z" fill="#615F58"></path> <path d="M154.722 360.216C155.588 360.216 156.31 360.937 156.31 361.804C156.31 362.67 155.588 363.392 154.722 363.392C153.856 363.392 153.134 362.67 153.134 361.804C153.086 360.937 153.808 360.216 154.722 360.216ZM154.722 359.734C153.567 359.734 152.653 360.649 152.653 361.804C152.653 362.959 153.567 363.873 154.722 363.873C155.877 363.873 156.791 362.959 156.791 361.804C156.791 360.649 155.877 359.734 154.722 359.734Z" fill="#615F58"></path> <path d="M184.992 360.216C185.859 360.216 186.581 360.937 186.581 361.804C186.581 362.67 185.859 363.392 184.992 363.392C184.126 363.392 183.404 362.67 183.404 361.804C183.404 360.937 184.126 360.216 184.992 360.216ZM184.992 359.734C183.837 359.734 182.923 360.649 182.923 361.804C182.923 362.959 183.837 363.873 184.992 363.873C186.147 363.873 187.062 362.959 187.062 361.804C187.062 360.649 186.147 359.734 184.992 359.734Z" fill="#615F58"></path> <path d="M245.486 360.216C246.352 360.216 247.074 360.937 247.074 361.804C247.074 362.67 246.352 363.392 245.486 363.392C244.619 363.392 243.897 362.67 243.897 361.804C243.849 360.937 244.571 360.216 245.486 360.216ZM245.486 359.734C244.331 359.734 243.416 360.649 243.416 361.804C243.416 362.959 244.331 363.873 245.486 363.873C246.641 363.873 247.555 362.959 247.555 361.804C247.555 360.649 246.592 359.734 245.486 359.734Z" fill="#615F58"></path> <path d="M275.756 360.216C276.623 360.216 277.344 360.937 277.344 361.804C277.344 362.67 276.623 363.392 275.756 363.392C274.89 363.392 274.168 362.67 274.168 361.804C274.168 360.937 274.89 360.216 275.756 360.216ZM275.756 359.734C274.601 359.734 273.687 360.649 273.687 361.804C273.687 362.959 274.601 363.873 275.756 363.873C276.911 363.873 277.826 362.959 277.826 361.804C277.826 360.649 276.911 359.734 275.756 359.734Z" fill="#615F58"></path> <path d="M336.201 360.216C337.067 360.216 337.789 360.937 337.789 361.804C337.789 362.67 337.067 363.392 336.201 363.392C335.335 363.392 334.613 362.67 334.613 361.804C334.613 360.937 335.335 360.216 336.201 360.216ZM336.201 359.734C335.046 359.734 334.132 360.649 334.132 361.804C334.132 362.959 335.046 363.873 336.201 363.873C337.356 363.873 338.271 362.959 338.271 361.804C338.271 360.649 337.356 359.734 336.201 359.734Z" fill="#615F58"></path> <path d="M366.52 360.216C367.386 360.216 368.108 360.937 368.108 361.804C368.108 362.67 367.386 363.392 366.52 363.392C365.654 363.392 364.932 362.67 364.932 361.804C364.932 360.937 365.654 360.216 366.52 360.216ZM366.52 359.734C365.365 359.734 364.451 360.649 364.451 361.804C364.451 362.959 365.365 363.873 366.52 363.873C367.675 363.873 368.589 362.959 368.589 361.804C368.589 360.649 367.675 359.734 366.52 359.734Z" fill="#615F58"></path> </g> <defs> <clipPath id="clip0"> <rect width="385" height="385" fill="white"></rect> </clipPath> </defs> </svg> 